1900 0 1 0           
10 Cubit 12.2 17 ACIS 19.0.2 Linux 24 Thu Apr  4 11:38:20 2013 
1 9.9999999999999995e-07 1e-10 
body $1 -1 -1 $-1 $2 $-1 $3 T -50 -50 -50 50 50 50.000000000000007 #
integer_attrib-name_attrib-gen-attrib $-1 -1 $-1 $-1 $0 2 1 1 1 1 1 1 1 1 1 1 1 1 1 0 1 1 1 @8 CUBIT_ID 2 #
lump $4 -1 -1 $-1 $-1 $5 $0 T -50 -50 -50 50 50 50.000000000000007 #
transform $-1 -1 1 0 0 0 1 0 0 0 1 0 0 0 1 no_rotate no_reflect no_shear #
integer_attrib-name_attrib-gen-attrib $-1 -1 $-1 $-1 $2 2 1 1 1 1 1 1 1 1 1 1 1 1 1 0 1 1 1 @8 CUBIT_ID 2 #
shell $-1 -1 -1 $-1 $-1 $-1 $6 $-1 $2 T -50 -50 -50 50 50 50.000000000000007 #
face $7 -1 -1 $-1 $8 $9 $5 $-1 $10 forward single T 24.999999999999989 -43.301270189221931 24.999999999999996 24.999999999999996 43.301270189221931 50.000000000000007 F #
integer_attrib-name_attrib-gen-attrib $-1 -1 $-1 $-1 $6 2 1 1 1 1 1 1 1 1 1 1 1 1 1 0 1 1 1 @8 CUBIT_ID 9 #
face $11 -1 -1 $-1 $12 $13 $5 $-1 $10 forward single T 25.000000000000004 -43.301270189221931 -49.999999999999993 25.000000000000011 43.301270189221931 -24.999999999999996 F #
loop $-1 -1 -1 $-1 $-1 $14 $6 T 24.999999999999989 -43.301270189221931 24.999999999999996 24.999999999999996 43.301270189221931 50.000000000000007 unknown #
plane-surface $-1 -1 -1 $-1 25 0 4.5924254968025736e-15 1 0 1.8369701987210294e-16 1.1248198369963928e-32 -1 -6.1232339957367648e-17 forward_v I I I I #
integer_attrib-name_attrib-gen-attrib $-1 -1 $-1 $-1 $8 2 1 1 1 1 1 1 1 1 1 1 1 1 1 0 1 1 1 @8 CUBIT_ID 10 #
face $15 -1 -1 $-1 $16 $17 $5 $-1 $10 forward single T 24.999999999999996 -50 -25.000000000000007 25.000000000000004 0 25.000000000000028 F #
loop $-1 -1 -1 $-1 $-1 $18 $8 T 25.000000000000004 -43.301270189221931 -49.999999999999993 25.000000000000011 43.301270189221931 -24.999999999999996 unknown #
coedge $-1 -1 -1 $-1 $19 $19 $20 $21 reversed $9 $-1 #
integer_attrib-name_attrib-gen-attrib $-1 -1 $-1 $-1 $12 2 1 1 1 1 1 1 1 1 1 1 1 1 1 0 1 1 1 @8 CUBIT_ID 11 #
face $22 -1 -1 $-1 $23 $24 $5 $-1 $10 forward single T 24.999999999999996 0 -25.000000000000007 25.000000000000004 50 25.000000000000028 F #
loop $-1 -1 -1 $-1 $-1 $25 $12 T 24.999999999999996 -50 -25.000000000000007 25.000000000000004 0 25.000000000000028 unknown #
coedge $-1 -1 -1 $-1 $26 $26 $27 $28 reversed $13 $-1 #
coedge $-1 -1 -1 $-1 $14 $14 $29 $30 forward $9 $-1 #
coedge $-1 -1 -1 $-1 $31 $31 $14 $21 forward $32 $-1 #
edge $33 -1 -1 $-1 $34 -43.301270189221931 $35 43.301270189221931 $20 $36 forward @7 unknown T 24.999999999999996 -43.301270189221931 25.000000000000004 24.999999999999996 43.301270189221931 25.000000000000004 #
integer_attrib-name_attrib-gen-attrib $-1 -1 $-1 $-1 $16 2 1 1 1 1 1 1 1 1 1 1 1 1 1 0 1 1 1 @8 CUBIT_ID 12 #
face $37 -1 -1 $-1 $38 $39 $5 $-1 $40 forward single T -1.9184653865522705e-13 24.999999999999812 -25 25.000000000000018 50 25.000000000000028 F #
loop $-1 -1 -1 $-1 $-1 $41 $16 T 24.999999999999996 0 -25.000000000000007 25.000000000000004 50 25.000000000000028 unknown #
coedge $-1 -1 -1 $-1 $42 $43 $44 $45 reversed $17 $-1 #
coedge $-1 -1 -1 $-1 $18 $18 $46 $47 forward $13 $-1 #
coedge $-1 -1 -1 $-1 $48 $48 $18 $28 forward $49 $-1 #
edge $50 -1 -1 $-1 $51 -43.301270189221931 $52 43.301270189221931 $27 $53 forward @7 unknown T 25.000000000000004 -43.301270189221931 -25 25.000000000000004 43.301270189221931 -25 #
coedge $-1 -1 -1 $-1 $54 $55 $19 $30 reversed $56 $-1 #
edge $57 -1 -1 $-1 $34 0.5235987755982987 $35 2.617993877991494 $19 $58 forward @7 unknown T 24.999999999999989 -43.301270189221931 24.999999999999996 24.999999999999996 43.301270189221931 50.000000000000007 #
coedge $-1 -1 -1 $-1 $20 $20 $59 $60 forward $32 $-1 #
loop $-1 -1 -1 $-1 $-1 $20 $61 T 24.999999999951125 -43.30127018925014 25.000000000000004 50 43.301270189221931 25.000000000000007 unknown #
integer_attrib-name_attrib-gen-attrib $-1 -1 $-1 $-1 $21 2 1 1 1 1 1 1 1 1 1 1 1 1 1 0 1 1 1 @8 CUBIT_ID 9 #
vertex $62 -1 -1 $-1 $63 $64 #
vertex $65 -1 -1 $-1 $60 $66 #
straight-curve $-1 -1 -1 $-1 24.999999999999996 0 25.000000000000004 0 -1 0 I I #
integer_attrib-name_attrib-gen-attrib $-1 -1 $-1 $-1 $23 2 1 1 1 1 1 1 1 1 1 1 1 1 1 0 1 1 1 @8 CUBIT_ID 13 #
face $67 -1 -1 $-1 $68 $56 $5 $-1 $40 forward single T -1.7763568394002505e-14 -43.301270189221945 24.999999999999993 25.000000000000007 43.301270189221945 50.000000000000007 F #
loop $-1 -1 -1 $-1 $-1 $69 $23 T -1.9184653865522705e-13 24.999999999999812 -25 25.000000000000018 50 25.000000000000028 unknown #
cone-surface $-1 -1 -1 $-1 0 0 0 -1 0 -1.8369701987210294e-16 -2.812049592490982e-31 25 1.5308084989341911e-15 1 I I -0.70710678118654746 0.70710678118654746 25 forward I I I I #
coedge $-1 -1 -1 $-1 $70 $71 $72 $73 reversed $24 $-1 #
coedge $-1 -1 -1 $-1 $43 $25 $74 $75 forward $17 $-1 #
coedge $-1 -1 -1 $-1 $25 $42 $76 $77 reversed $17 $-1 #
coedge $-1 -1 -1 $-1 $72 $59 $25 $45 forward $78 $-1 #
edge $79 -1 -1 $-1 $35 0 $80 50.677068902278137 $44 $81 forward @7 unknown T 24.999999999999996 -43.301270189221967 -1.263668839378835e-13 25.000000000000004 0 25.000000000000028 #
coedge $-1 -1 -1 $-1 $82 $83 $26 $47 reversed $84 $-1 #
edge $85 -1 -1 $-1 $51 3.6651914291880923 $52 5.7595865315812871 $26 $58 forward @7 unknown T 25.000000000000004 -43.301270189221931 -49.999999999999993 25.000000000000011 43.301270189221931 -24.999999999999996 #
coedge $-1 -1 -1 $-1 $27 $27 $86 $87 forward $49 $-1 #
loop $-1 -1 -1 $-1 $-1 $27 $88 T 24.999999999999993 -43.301270189221931 -25 50 43.301270189221931 -25 unknown #
integer_attrib-name_attrib-gen-attrib $-1 -1 $-1 $-1 $28 2 1 1 1 1 1 1 1 1 1 1 1 1 1 0 1 1 1 @8 CUBIT_ID 11 #
vertex $89 -1 -1 $-1 $90 $91 #
vertex $92 -1 -1 $-1 $87 $93 #
straight-curve $-1 -1 -1 $-1 25.000000000000004 0 -25 -0 1 0 I I #
coedge $-1 -1 -1 $-1 $55 $29 $94 $95 reversed $56 $-1 #
coedge $-1 -1 -1 $-1 $29 $54 $96 $97 reversed $56 $-1 #
loop $-1 -1 -1 $-1 $-1 $55 $38 T -1.7763568394002505e-14 -43.301270189221945 24.999999999999993 25.000000000000007 43.301270189221945 50.000000000000007 unknown #
integer_attrib-name_attrib-gen-attrib $-1 -1 $-1 $-1 $30 2 1 1 1 1 1 1 1 1 1 1 1 1 1 0 1 1 1 @8 CUBIT_ID 10 #
ellipse-curve $-1 -1 -1 $-1 25 0 4.5924254968025736e-15 1 0 1.8369701987210294e-16 -5.6240991849819639e-31 50 3.0616169978683823e-15 1 I I #
coedge $-1 -1 -1 $-1 $44 $72 $31 $60 reversed $78 $-1 #
edge $98 -1 -1 $-1 $35 2.0943951023920668 $34 4.1887902047863905 $31 $99 forward @7 unknown T 24.999999999951125 -43.30127018925014 25.000000000000004 50 43.301270189221931 25.000000000000007 #
face $100 -1 -1 $-1 $101 $32 $5 $-1 $102 forward single T 24.999999999951125 -43.30127018925014 25.000000000000004 50 43.301270189221931 25.000000000000007 F #
integer_attrib-name_attrib-gen-attrib $-1 -1 $-1 $-1 $34 2 1 1 1 1 1 1 1 1 1 1 1 1 1 0 1 1 1 @8 CUBIT_ID 9 #
edge $103 -1 -1 $-1 $34 4.1887902047863905 $104 5.2359877559829888 $105 $99 forward @7 unknown T -25.000000000000007 43.301270189221917 24.999999999999996 25.000000000000018 50 25.000000000000028 #
point $-1 -1 -1 $-1 24.999999999999996 43.301270189221931 25.000000000000004 #
integer_attrib-name_attrib-gen-attrib $-1 -1 $-1 $-1 $35 2 1 1 1 1 1 1 1 1 1 1 1 1 1 0 1 1 1 @8 CUBIT_ID 10 #
point $-1 -1 -1 $-1 24.999999999999996 -43.301270189221931 25.000000000000004 #
integer_attrib-name_attrib-gen-attrib $-1 -1 $-1 $-1 $38 2 1 1 1 1 1 1 1 1 1 1 1 1 1 0 1 1 1 @8 CUBIT_ID 14 #
face $106 -1 -1 $-1 $107 $108 $5 $-1 $40 forward single T -1.2168044349891716e-13 -50 -25 25.000000000000018 -24.999999999999858 25.000000000000028 F #
coedge $-1 -1 -1 $-1 $109 $110 $111 $112 reversed $39 $-1 #
coedge $-1 -1 -1 $-1 $71 $41 $113 $114 reversed $24 $-1 #
coedge $-1 -1 -1 $-1 $41 $70 $109 $115 forward $24 $-1 #
coedge $-1 -1 -1 $-1 $59 $44 $41 $73 forward $78 $-1 #
edge $116 -1 -1 $-1 $80 50.677068902278137 $34 101.35413780455627 $72 $117 forward @7 unknown T 24.999999999999996 0 -1.263668839378835e-13 25.000000000000004 43.301270189221967 25.000000000000028 #
coedge $-1 -1 -1 $-1 $118 $119 $42 $75 reversed $108 $-1 #
edge $120 -1 -1 $-1 $35 2.617993877991494 $51 3.6651914291880923 $42 $58 forward @7 unknown T 24.999999999999996 -50 -25 25.000000000000004 -43.301270189221917 25.000000000000014 #
coedge $-1 -1 -1 $-1 $86 $113 $43 $77 forward $121 $-1 #
edge $122 -1 -1 $-1 $80 50.677068902278123 $51 101.35413780455625 $76 $123 forward @7 unknown T 25 -43.301270189221938 -25.000000000000007 25.000000000000004 0 1.4921397450962056e-13 #
loop $-1 -1 -1 $-1 $-1 $44 $124 T 24.999999999951125 -43.30127018925014 -1.263668839378835e-13 50 43.301270189221967 25.000000000000028 unknown #
integer_attrib-name_attrib-gen-attrib $-1 -1 $-1 $-1 $45 2 1 1 1 1 1 1 1 1 1 1 1 1 1 0 1 1 1 @8 CUBIT_ID 13 #
vertex $125 -1 -1 $-1 $114 $126 #
intcurve-curve $-1 -1 -1 $-1 forward { exactcur full nurbs 2 open 3 
	0 2 50.677068902278137 2 101.35413780455627 2 
	25 -43.301270189221967 25.000000000000028 1 
	25 -14.433756729740505 -1.247890679678676e-13 1.2247448713915565 
	25.000000000000004 0 -1.263668839378835e-13 1 
	25 14.433756729740505 -1.247890679678676e-13 1.2247448713915565 
	25 43.301270189221967 25.000000000000028 1 
	0 
	null_surface 
	null_surface 
	nullbs 
	nullbs 
	-1 
	-1 
	I I 
	0 
	0 
	0 
	
	-1 
	none F F 1 F 0 } I I #
coedge $-1 -1 -1 $-1 $83 $46 $127 $128 reversed $84 $-1 #
coedge $-1 -1 -1 $-1 $46 $82 $129 $130 reversed $84 $-1 #
loop $-1 -1 -1 $-1 $-1 $82 $107 T -8.8817841970012523e-15 -43.301270189221952 -49.999999999999993 25.000000000000014 43.301270189221952 -24.999999999999993 unknown #
integer_attrib-name_attrib-gen-attrib $-1 -1 $-1 $-1 $47 2 1 1 1 1 1 1 1 1 1 1 1 1 1 0 1 1 1 @8 CUBIT_ID 12 #
coedge $-1 -1 -1 $-1 $113 $76 $48 $87 reversed $121 $-1 #
edge $131 -1 -1 $-1 $52 -1.0471975511965979 $51 1.0471975511965974 $48 $132 forward @7 unknown T 24.999999999999993 -43.301270189221931 -25 50 43.301270189221931 -25 #
face $133 -1 -1 $-1 $134 $49 $5 $-1 $135 forward single T 24.999999999999993 -43.301270189221931 -25 50 43.301270189221931 -25 F #
integer_attrib-name_attrib-gen-attrib $-1 -1 $-1 $-1 $51 2 1 1 1 1 1 1 1 1 1 1 1 1 1 0 1 1 1 @8 CUBIT_ID 11 #
edge $136 -1 -1 $-1 $51 1.0471975511965974 $137 2.0943951023931957 $138 $132 forward @7 unknown T -25.000000000000011 -50 -25.000000000000007 25.000000000000011 -43.301270189221917 -25 #
point $-1 -1 -1 $-1 25.000000000000004 -43.301270189221931 -25 #
integer_attrib-name_attrib-gen-attrib $-1 -1 $-1 $-1 $52 2 1 1 1 1 1 1 1 1 1 1 1 1 1 0 1 1 1 @8 CUBIT_ID 12 #
point $-1 -1 -1 $-1 25.000000000000004 43.301270189221931 -25 #
coedge $-1 -1 -1 $-1 $105 $139 $54 $95 forward $140 $-1 #
edge $141 -1 -1 $-1 $142 50.000000000000064 $34 100.00000000000004 $94 $143 forward @7 unknown T -5.9211894646674884e-15 1.1472304587793285e-14 24.999999999999993 25.000000000000007 43.301270189221945 25.000000000000004 #
coedge $-1 -1 -1 $-1 $144 $145 $55 $97 forward $146 $-1 #
edge $147 -1 -1 $-1 $35 0 $142 50.000000000000064 $96 $148 forward @7 unknown T -1.7763568394002505e-14 -43.301270189221945 24.999999999999993 25.000000000000007 2.3684757858670004e-14 25.000000000000004 #
integer_attrib-name_attrib-gen-attrib $-1 -1 $-1 $-1 $60 2 1 1 1 1 1 1 1 1 1 1 1 1 1 0 1 1 1 @8 CUBIT_ID 27 #
ellipse-curve $-1 -1 -1 $-1 -3.0616169978683823e-15 0 25 -1.224646799147353e-16 0 1 -50 0 -6.1232339957367645e-15 1 I I #
integer_attrib-name_attrib-gen-attrib $-1 -1 $-1 $-1 $61 2 1 1 1 1 1 1 1 1 1 1 1 1 1 0 1 1 1 @8 CUBIT_ID 17 #
face $149 -1 -1 $-1 $150 $146 $5 $-1 $102 forward single T -25.000000000000014 -50 24.999999999999993 25.000000000000007 2.3684757858670004e-14 25.000000000000004 F #
plane-surface $-1 -1 -1 $-1 -3.0616169978683823e-15 0 25 -1.224646799147353e-16 0 1 1 0 1.224646799147353e-16 forward_v I I I I #
integer_attrib-name_attrib-gen-attrib $-1 -1 $-1 $-1 $63 2 1 1 1 1 1 1 1 1 1 1 1 1 1 0 1 1 1 @8 CUBIT_ID 30 #
vertex $151 -1 -1 $-1 $152 $153 #
coedge $-1 -1 -1 $-1 $139 $94 $154 $63 forward $140 $-1 #
integer_attrib-name_attrib-gen-attrib $-1 -1 $-1 $-1 $68 2 1 1 1 1 1 1 1 1 1 1 1 1 1 0 1 1 1 @8 CUBIT_ID 15 #
face $155 -1 -1 $-1 $61 $84 $5 $-1 $40 forward single T -8.8817841970012523e-15 -43.301270189221952 -49.999999999999993 25.000000000000014 43.301270189221952 -24.999999999999993 F #
loop $-1 -1 -1 $-1 $-1 $118 $68 T -1.2168044349891716e-13 -50 -25 25.000000000000018 -24.999999999999858 25.000000000000028 unknown #
coedge $-1 -1 -1 $-1 $110 $69 $71 $115 reversed $39 $-1 #
coedge $-1 -1 -1 $-1 $69 $109 $156 $157 reversed $39 $-1 #
coedge $-1 -1 -1 $-1 $158 $154 $69 $112 forward $159 $-1 #
edge $160 -1 -1 $-1 $34 0 $161 28.936848936041248 $111 $162 forward @7 unknown T -1.127986593019159e-13 24.999999999999865 -1.1723955140041653e-13 25.000000000000018 43.301270189221938 25.000000000000028 #
coedge $-1 -1 -1 $-1 $76 $86 $70 $114 forward $121 $-1 #
edge $163 -1 -1 $-1 $52 0 $80 50.677068902278123 $113 $164 forward @7 unknown T 25 0 -25.000000000000007 25.000000000000004 43.301270189221938 1.4921397450962056e-13 #
edge $165 -1 -1 $-1 $52 -0.52359877559829893 $34 0.5235987755982987 $71 $58 forward @7 unknown T 24.999999999999996 43.301270189221931 -25 25.000000000000004 50 25.000000000000004 #
integer_attrib-name_attrib-gen-attrib $-1 -1 $-1 $-1 $73 2 1 1 1 1 1 1 1 1 1 1 1 1 1 0 1 1 1 @8 CUBIT_ID 16 #
intcurve-curve $-1 -1 -1 $-1 forward { ref 0 } I I #
coedge $-1 -1 -1 $-1 $119 $74 $166 $167 reversed $108 $-1 #
coedge $-1 -1 -1 $-1 $74 $118 $168 $169 reversed $108 $-1 #
integer_attrib-name_attrib-gen-attrib $-1 -1 $-1 $-1 $75 2 1 1 1 1 1 1 1 1 1 1 1 1 1 0 1 1 1 @8 CUBIT_ID 14 #
loop $-1 -1 -1 $-1 $-1 $76 $170 T 24.999999999999993 -43.301270189221938 -25.000000000000007 50 43.301270189221938 1.4921397450962056e-13 unknown #
integer_attrib-name_attrib-gen-attrib $-1 -1 $-1 $-1 $77 2 1 1 1 1 1 1 1 1 1 1 1 1 1 0 1 1 1 @8 CUBIT_ID 15 #
intcurve-curve $-1 -1 -1 $-1 forward { exactcur full nurbs 2 open 3 
	0 2 50.677068902278123 2 101.35413780455625 2 
	25.000000000000004 43.301270189221938 -25.000000000000007 1 
	25 14.43375672974048 1.4699352846037073e-13 1.2247448713915527 
	25 0 1.4921397450962056e-13 1 
	25 -14.43375672974048 1.4699352846037073e-13 1.2247448713915527 
	25.000000000000004 -43.301270189221938 -25.000000000000007 1 
	0 
	null_surface 
	null_surface 
	nullbs 
	nullbs 
	-1 
	-1 
	I I 
	0 
	0 
	0 
	
	-1 
	none F F 1 F 0 } I I #
face $171 -1 -1 $-1 $172 $78 $5 $-1 $173 forward single T 24.999999999951125 -43.30127018925014 -1.263668839378835e-13 50 43.301270189221967 25.000000000000028 F #
integer_attrib-name_attrib-gen-attrib $-1 -1 $-1 $-1 $80 2 1 1 1 1 1 1 1 1 1 1 1 1 1 0 1 1 1 @8 CUBIT_ID 13 #
point $-1 -1 -1 $-1 25 0 3.0616169978683823e-15 #
coedge $-1 -1 -1 $-1 $138 $174 $82 $128 forward $175 $-1 #
edge $176 -1 -1 $-1 $177 50 $51 100.00000000000006 $127 $178 forward @7 unknown T -8.8817841970012523e-15 -43.301270189221952 -25 25.000000000000014 1.4210854715202013e-14 -24.999999999999996 #
coedge $-1 -1 -1 $-1 $179 $180 $83 $130 forward $181 $-1 #
edge $182 -1 -1 $-1 $52 0 $177 50 $129 $183 forward @7 unknown T 2.5992795450051481e-16 -1.1125733981792598e-14 -25 25.000000000000014 43.301270189221952 -24.999999999999993 #
integer_attrib-name_attrib-gen-attrib $-1 -1 $-1 $-1 $87 2 1 1 1 1 1 1 1 1 1 1 1 1 1 0 1 1 1 @8 CUBIT_ID 35 #
ellipse-curve $-1 -1 -1 $-1 0 0 -25 0 0 -1 50 0 0 1 I I #
integer_attrib-name_attrib-gen-attrib $-1 -1 $-1 $-1 $88 2 1 1 1 1 1 1 1 1 1 1 1 1 1 0 1 1 1 @8 CUBIT_ID 26 #
face $184 -1 -1 $-1 $185 $186 $5 $-1 $187 forward single T -25.000000000000007 -43.301270189221924 24.999999999999996 -25 43.301270189221931 50 F #
plane-surface $-1 -1 -1 $-1 0 0 -25 0 0 -1 -1 0 0 forward_v I I I I #
integer_attrib-name_attrib-gen-attrib $-1 -1 $-1 $-1 $90 2 1 1 1 1 1 1 1 1 1 1 1 1 1 0 1 1 1 @8 CUBIT_ID 37 #
vertex $188 -1 -1 $-1 $189 $190 #
coedge $-1 -1 -1 $-1 $174 $127 $191 $90 forward $175 $-1 #
coedge $-1 -1 -1 $-1 $94 $105 $192 $193 forward $140 $-1 #
loop $-1 -1 -1 $-1 $-1 $94 $150 T -25.000000000000007 1.1472304587793285e-14 24.999999999999993 25.000000000000018 50 25.000000000000028 unknown #
integer_attrib-name_attrib-gen-attrib $-1 -1 $-1 $-1 $95 2 1 1 1 1 1 1 1 1 1 1 1 1 1 0 1 1 1 @8 CUBIT_ID 22 #
vertex $194 -1 -1 $-1 $195 $196 #
intcurve-curve $-1 -1 -1 $-1 forward { exactcur full nurbs 2 open 2 
	0 2 100.00000000000004 2 
	25.000000000000007 -43.301270189221945 25 1 
	-12.500000000000014 0 24.999999999999996 1.9999999999999998 
	25.000000000000007 43.301270189221945 25 1 
	0 
	null_surface 
	null_surface 
	nullbs 
	nullbs 
	-1 
	-1 
	I I 
	0 
	0 
	0 
	
	-1 
	none F F 1 F 0 } I I #
coedge $-1 -1 -1 $-1 $145 $96 $197 $195 forward $146 $-1 #
coedge $-1 -1 -1 $-1 $96 $144 $198 $199 forward $146 $-1 #
loop $-1 -1 -1 $-1 $-1 $96 $101 T -25.000000000000014 -50 24.999999999999993 25.000000000000007 2.3684757858670004e-14 25.000000000000004 unknown #
integer_attrib-name_attrib-gen-attrib $-1 -1 $-1 $-1 $97 2 1 1 1 1 1 1 1 1 1 1 1 1 1 0 1 1 1 @8 CUBIT_ID 21 #
intcurve-curve $-1 -1 -1 $-1 forward { ref 2 } I I #
integer_attrib-name_attrib-gen-attrib $-1 -1 $-1 $-1 $101 2 1 1 1 1 1 1 1 1 1 1 1 1 1 0 1 1 1 @8 CUBIT_ID 18 #
face $200 -1 -1 $-1 $201 $140 $5 $-1 $102 forward single T -25.000000000000007 1.1472304587793285e-14 24.999999999999993 25.000000000000018 50 25.000000000000028 F #
integer_attrib-name_attrib-gen-attrib $-1 -1 $-1 $-1 $104 2 1 1 1 1 1 1 1 1 1 1 1 1 1 0 1 1 1 @8 CUBIT_ID 19 #
edge $202 -1 -1 $-1 $104 -1.0471975511965974 $203 1.0471975511965974 $204 $99 forward @7 unknown T -50 -43.301270189221924 24.999999999999993 -25 43.301270189221931 25.000000000000028 #
point $-1 -1 -1 $-1 -25.000000000000007 43.301270189221931 25.000000000000028 #
coedge $-1 -1 -1 $-1 $111 $158 $105 $63 reversed $159 $-1 #
integer_attrib-name_attrib-gen-attrib $-1 -1 $-1 $-1 $107 2 1 1 1 1 1 1 1 1 1 1 1 1 1 0 1 1 1 @8 CUBIT_ID 16 #
coedge $-1 -1 -1 $-1 $205 $206 $110 $157 forward $207 $-1 #
edge $208 -1 -1 $-1 $161 107.99379044025021 $52 136.93063937629154 $156 $209 forward @7 unknown T -1.9184653865522705e-13 24.999999999999812 -25 25.000000000000007 43.301270189221945 1.8474111129762605e-13 #
coedge $-1 -1 -1 $-1 $154 $111 $210 $211 forward $159 $-1 #
loop $-1 -1 -1 $-1 $-1 $111 $201 T -25.000000000000007 24.999999999999865 -1.1723955140041653e-13 25.000000000000018 50 25.000000000000028 unknown #
integer_attrib-name_attrib-gen-attrib $-1 -1 $-1 $-1 $112 2 1 1 1 1 1 1 1 1 1 1 1 1 1 0 1 1 1 @8 CUBIT_ID 19 #
vertex $212 -1 -1 $-1 $213 $214 #
intcurve-curve $-1 -1 -1 $-1 forward { exactcur full nurbs 2 open 2 
	0 2 136.93063937629154 2 
	25.000000000000018 43.301270189221938 25.000000000000028 1 
	-49.999999999999957 0 -49.999999999999986 1 
	25.000000000000018 -43.301270189221938 25.000000000000028 1 
	0 
	null_surface 
	null_surface 
	nullbs 
	nullbs 
	-1 
	-1 
	I I 
	0 
	0 
	0 
	
	-1 
	none F F 1 F 0 } I I #
integer_attrib-name_attrib-gen-attrib $-1 -1 $-1 $-1 $114 2 1 1 1 1 1 1 1 1 1 1 1 1 1 0 1 1 1 @8 CUBIT_ID 17 #
intcurve-curve $-1 -1 -1 $-1 forward { ref 1 } I I #
integer_attrib-name_attrib-gen-attrib $-1 -1 $-1 $-1 $115 2 1 1 1 1 1 1 1 1 1 1 1 1 1 0 1 1 1 @8 CUBIT_ID 18 #
coedge $-1 -1 -1 $-1 $198 $215 $118 $167 forward $216 $-1 #
edge $217 -1 -1 $-1 $218 107.99379044025028 $35 136.93063937629154 $166 $219 forward @7 unknown T -1.2168044349891716e-13 -43.301270189221938 -1.2345680033831741e-13 25.000000000000018 -24.999999999999858 25.000000000000028 #
coedge $-1 -1 -1 $-1 $220 $191 $119 $169 forward $221 $-1 #
edge $222 -1 -1 $-1 $51 0 $218 28.936848936041212 $168 $223 forward @7 unknown T -1.1546319456101628e-13 -43.301270189221945 -25 25.000000000000007 -24.999999999999893 1.1013412404281553e-13 #
face $224 -1 -1 $-1 $225 $121 $5 $-1 $226 forward single T 24.999999999999993 -43.301270189221938 -25.000000000000007 50 43.301270189221938 1.4921397450962056e-13 F #
integer_attrib-name_attrib-gen-attrib $-1 -1 $-1 $-1 $124 2 1 1 1 1 1 1 1 1 1 1 1 1 1 0 1 1 1 @8 CUBIT_ID 21 #
face $227 -1 -1 $-1 $170 $207 $5 $-1 $226 forward single T -25.000000000000011 24.999999999999812 -25.000000000000007 25.000000000000007 50 1.8474111129762605e-13 F #
cone-surface $-1 -1 -1 $-1 0 0 0 1.224646799147353e-16 0 -1 -25 0 -3.0616169978683823e-15 1 I I -0.70710678118654746 0.70710678118654746 25 forward I I I I #
coedge $-1 -1 -1 $-1 $127 $138 $228 $229 forward $175 $-1 #
loop $-1 -1 -1 $-1 $-1 $127 $230 T -25.000000000000011 -50 -25.000000000000007 25.000000000000014 1.4210854715202013e-14 -24.999999999999996 unknown #
integer_attrib-name_attrib-gen-attrib $-1 -1 $-1 $-1 $128 2 1 1 1 1 1 1 1 1 1 1 1 1 1 0 1 1 1 @8 CUBIT_ID 25 #
vertex $231 -1 -1 $-1 $232 $233 #
intcurve-curve $-1 -1 -1 $-1 forward { exactcur full nurbs 2 open 2 
	0 2 100.00000000000006 2 
	25.000000000000014 43.301270189221952 -24.999999999999996 1 
	-12.500000000000014 0 -24.999999999999996 1.9999999999999987 
	25.000000000000014 -43.301270189221952 -24.999999999999996 1 
	0 
	null_surface 
	null_surface 
	nullbs 
	nullbs 
	-1 
	-1 
	I I 
	0 
	0 
	0 
	
	-1 
	none F F 1 F 0 } I I #
coedge $-1 -1 -1 $-1 $180 $129 $234 $232 forward $181 $-1 #
coedge $-1 -1 -1 $-1 $129 $179 $205 $235 forward $181 $-1 #
loop $-1 -1 -1 $-1 $-1 $129 $225 T -25.000000000000011 -1.4210854715202016e-14 -25.000000000000007 25.000000000000014 50 -24.999999999999993 unknown #
integer_attrib-name_attrib-gen-attrib $-1 -1 $-1 $-1 $130 2 1 1 1 1 1 1 1 1 1 1 1 1 1 0 1 1 1 @8 CUBIT_ID 26 #
intcurve-curve $-1 -1 -1 $-1 forward { ref 4 } I I #
integer_attrib-name_attrib-gen-attrib $-1 -1 $-1 $-1 $134 2 1 1 1 1 1 1 1 1 1 1 1 1 1 0 1 1 1 @8 CUBIT_ID 27 #
face $236 -1 -1 $-1 $237 $238 $5 $-1 $187 forward single T -25 -43.301270189221931 -50 -24.999999999999996 43.301270189221931 -25 F #
loop $-1 -1 -1 $-1 $-1 $239 $134 T -25.000000000000007 -43.301270189221924 24.999999999999996 -25 43.301270189221931 50 unknown #
plane-surface $-1 -1 -1 $-1 -25 0 -1.5308084989341911e-15 -1 0 -6.1232339957367648e-17 -6.1232339957367648e-17 0 1 forward_v I I I I #
integer_attrib-name_attrib-gen-attrib $-1 -1 $-1 $-1 $137 2 1 1 1 1 1 1 1 1 1 1 1 1 1 0 1 1 1 @8 CUBIT_ID 21 #
edge $240 -1 -1 $-1 $137 2.0943951023931948 $241 4.1887902047863905 $242 $132 forward @7 unknown T -50 -43.301270189221938 -25.000000000000007 -24.999999999999968 43.301270189221931 -25 #
point $-1 -1 -1 $-1 -25 -43.301270189221931 -25.000000000000007 #
coedge $-1 -1 -1 $-1 $168 $220 $138 $90 reversed $221 $-1 #
coedge $-1 -1 -1 $-1 $243 $197 $139 $193 reversed $244 $-1 #
edge $245 -1 -1 $-1 $104 0 $142 49.999999999999993 $139 $246 forward @7 unknown T -25.000000000000007 1.1472304587793285e-14 24.999999999999996 -3.5527136788005049e-15 43.301270189221938 25.000000000000028 #
integer_attrib-name_attrib-gen-attrib $-1 -1 $-1 $-1 $142 2 1 1 1 1 1 1 1 1 1 1 1 1 1 0 1 1 1 @8 CUBIT_ID 15 #
edge $247 -1 -1 $-1 $142 49.999999999999993 $203 100.00000000000001 $144 $246 forward @7 unknown T -25.000000000000007 -43.301270189221938 24.999999999999996 3.5527136788005009e-15 1.1842378929335007e-14 25.000000000000004 #
point $-1 -1 -1 $-1 -4.7008200530011477e-15 1.1472304587793285e-14 25 #
coedge $-1 -1 -1 $-1 $192 $243 $144 $195 reversed $244 $-1 #
coedge $-1 -1 -1 $-1 $215 $166 $145 $199 reversed $216 $-1 #
edge $248 -1 -1 $-1 $203 1.0471975511965974 $35 2.0943951023920668 $145 $99 forward @7 unknown T -25.000000000000014 -50 24.999999999999996 24.999999999999996 -43.301270189221917 25.000000000000004 #
integer_attrib-name_attrib-gen-attrib $-1 -1 $-1 $-1 $150 2 1 1 1 1 1 1 1 1 1 1 1 1 1 0 1 1 1 @8 CUBIT_ID 19 #
face $249 -1 -1 $-1 $124 $159 $5 $-1 $173 forward single T -25.000000000000007 24.999999999999865 -1.1723955140041653e-13 25.000000000000018 50 25.000000000000028 F #
integer_attrib-name_attrib-gen-attrib $-1 -1 $-1 $-1 $152 2 1 1 1 1 1 1 1 1 1 1 1 1 1 0 1 1 1 @8 CUBIT_ID 51 #
vertex $250 -1 -1 $-1 $199 $251 #
coedge $-1 -1 -1 $-1 $252 $252 $253 $152 forward $254 $-1 #
coedge $-1 -1 -1 $-1 $206 $156 $180 $235 reversed $207 $-1 #
coedge $-1 -1 -1 $-1 $156 $205 $255 $213 forward $207 $-1 #
loop $-1 -1 -1 $-1 $-1 $156 $172 T -25.000000000000011 24.999999999999812 -25.000000000000007 25.000000000000007 50 1.8474111129762605e-13 unknown #
integer_attrib-name_attrib-gen-attrib $-1 -1 $-1 $-1 $157 2 1 1 1 1 1 1 1 1 1 1 1 1 1 0 1 1 1 @8 CUBIT_ID 20 #
intcurve-curve $-1 -1 -1 $-1 forward { exactcur full nurbs 2 open 2 
	0 2 136.93063937629154 2 
	25.000000000000007 -43.301270189221945 -24.999999999999996 1 
	-50.000000000000007 0 49.999999999999972 1 
	25.000000000000007 43.301270189221945 -24.999999999999996 1 
	0 
	null_surface 
	null_surface 
	nullbs 
	nullbs 
	-1 
	-1 
	I I 
	0 
	0 
	0 
	
	-1 
	none F F 1 F 0 } I I #
coedge $-1 -1 -1 $-1 $255 $256 $158 $211 reversed $257 $-1 #
edge $258 -1 -1 $-1 $161 107.99379044025041 $104 136.93063937629157 $158 $259 forward @7 unknown T -25.000000000000007 24.999999999999925 -9.4146912488213275e-14 8.7929663550312398e-14 43.301270189221938 25.000000000000028 #
integer_attrib-name_attrib-gen-attrib $-1 -1 $-1 $-1 $161 2 1 1 1 1 1 1 1 1 1 1 1 1 1 0 1 1 1 @8 CUBIT_ID 14 #
edge $260 -1 -1 $-1 $241 0 $161 28.936848936041201 $206 $261 forward @7 unknown T -25 24.999999999999883 -25.000000000000007 1.0125233984581428e-13 43.301270189221931 9.1482377229112899e-14 #
point $-1 -1 -1 $-1 -1.5308084989341911e-15 25 -1.8746997283273212e-31 #
coedge $-1 -1 -1 $-1 $166 $198 $262 $263 forward $216 $-1 #
loop $-1 -1 -1 $-1 $-1 $166 $264 T -25.000000000000014 -50 -1.2434497875801753e-13 25.000000000000018 -24.999999999999858 25.000000000000028 unknown #
integer_attrib-name_attrib-gen-attrib $-1 -1 $-1 $-1 $167 2 1 1 1 1 1 1 1 1 1 1 1 1 1 0 1 1 1 @8 CUBIT_ID 23 #
vertex $265 -1 -1 $-1 $169 $266 #
intcurve-curve $-1 -1 -1 $-1 forward { ref 3 } I I #
coedge $-1 -1 -1 $-1 $191 $168 $267 $268 forward $221 $-1 #
loop $-1 -1 -1 $-1 $-1 $168 $269 T -25.000000000000011 -50 -25.000000000000007 25.000000000000011 -24.999999999999826 1.4921397450962104e-13 unknown #
integer_attrib-name_attrib-gen-attrib $-1 -1 $-1 $-1 $169 2 1 1 1 1 1 1 1 1 1 1 1 1 1 0 1 1 1 @8 CUBIT_ID 24 #
intcurve-curve $-1 -1 -1 $-1 forward { ref 5 } I I #
integer_attrib-name_attrib-gen-attrib $-1 -1 $-1 $-1 $170 2 1 1 1 1 1 1 1 1 1 1 1 1 1 0 1 1 1 @8 CUBIT_ID 23 #
face $270 -1 -1 $-1 $230 $181 $5 $-1 $135 forward single T -25.000000000000011 -1.4210854715202016e-14 -25.000000000000007 25.000000000000014 50 -24.999999999999993 F #
cone-surface $-1 -1 -1 $-1 0 0 0 0 0 1 25 0 0 1 I I -0.70710678118654746 0.70710678118654746 25 forward I I I I #
integer_attrib-name_attrib-gen-attrib $-1 -1 $-1 $-1 $172 2 1 1 1 1 1 1 1 1 1 1 1 1 1 0 1 1 1 @8 CUBIT_ID 22 #
coedge $-1 -1 -1 $-1 $271 $234 $174 $229 reversed $272 $-1 #
edge $273 -1 -1 $-1 $137 0 $177 49.999999999999972 $174 $274 forward @7 unknown T -25 -43.301270189221931 -25.000000000000007 2.5992795450051481e-16 -1.1125733981792598e-14 -25 #
face $275 -1 -1 $-1 $88 $175 $5 $-1 $135 forward single T -25.000000000000011 -50 -25.000000000000007 25.000000000000014 1.4210854715202013e-14 -24.999999999999996 F #
integer_attrib-name_attrib-gen-attrib $-1 -1 $-1 $-1 $177 2 1 1 1 1 1 1 1 1 1 1 1 1 1 0 1 1 1 @8 CUBIT_ID 17 #
edge $276 -1 -1 $-1 $177 49.999999999999972 $241 99.999999999999986 $179 $274 forward @7 unknown T -25 -1.4210854715202016e-14 -25.000000000000007 5.3290705182007514e-15 43.301270189221931 -25 #
point $-1 -1 -1 $-1 2.5992795450051481e-16 -1.1125733981792598e-14 -25 #
coedge $-1 -1 -1 $-1 $228 $271 $179 $232 reversed $272 $-1 #
edge $277 -1 -1 $-1 $241 -2.0943951023931957 $52 -1.0471975511965979 $180 $132 forward @7 unknown T -25.000000000000011 43.301270189221917 -25.000000000000007 25.000000000000004 50 -25 #
integer_attrib-name_attrib-gen-attrib $-1 -1 $-1 $-1 $185 2 1 1 1 1 1 1 1 1 1 1 1 1 1 0 1 1 1 @8 CUBIT_ID 28 #
face $278 -1 -1 $-1 $279 $280 $5 $-1 $187 forward single T -25.000000000000007 0 -25.000000000000007 -25 50 25.000000000000028 F #
loop $-1 -1 -1 $-1 $-1 $281 $185 T -25 -43.301270189221931 -50 -24.999999999999996 43.301270189221931 -25 unknown #
coedge $-1 -1 -1 $-1 $282 $282 $252 $283 reversed $186 $-1 #
integer_attrib-name_attrib-gen-attrib $-1 -1 $-1 $-1 $189 2 1 1 1 1 1 1 1 1 1 1 1 1 1 0 1 1 1 @8 CUBIT_ID 52 #
vertex $284 -1 -1 $-1 $235 $285 #
coedge $-1 -1 -1 $-1 $286 $286 $287 $189 forward $288 $-1 #
coedge $-1 -1 -1 $-1 $197 $192 $282 $289 reversed $244 $-1 #
loop $-1 -1 -1 $-1 $-1 $192 $290 T -25.000000000000007 -43.301270189221938 24.999999999999996 3.5527136788005009e-15 43.301270189221938 50 unknown #
integer_attrib-name_attrib-gen-attrib $-1 -1 $-1 $-1 $193 2 1 1 1 1 1 1 1 1 1 1 1 1 1 0 1 1 1 @8 CUBIT_ID 31 #
intcurve-curve $-1 -1 -1 $-1 forward { exactcur full nurbs 2 open 2 
	0 2 100.00000000000001 2 
	-25.000000000000007 43.301270189221938 25 1 
	12.500000000000007 0 25.000000000000004 1.9999999999999987 
	-25.000000000000007 -43.301270189221938 25 1 
	0 
	null_surface 
	null_surface 
	nullbs 
	nullbs 
	-1 
	-1 
	I I 
	0 
	0 
	0 
	
	-1 
	none F F 1 F 0 } I I #
integer_attrib-name_attrib-gen-attrib $-1 -1 $-1 $-1 $195 2 1 1 1 1 1 1 1 1 1 1 1 1 1 0 1 1 1 @8 CUBIT_ID 28 #
integer_attrib-name_attrib-gen-attrib $-1 -1 $-1 $-1 $199 2 1 1 1 1 1 1 1 1 1 1 1 1 1 0 1 1 1 @8 CUBIT_ID 29 #
integer_attrib-name_attrib-gen-attrib $-1 -1 $-1 $-1 $201 2 1 1 1 1 1 1 1 1 1 1 1 1 1 0 1 1 1 @8 CUBIT_ID 20 #
integer_attrib-name_attrib-gen-attrib $-1 -1 $-1 $-1 $203 2 1 1 1 1 1 1 1 1 1 1 1 1 1 0 1 1 1 @8 CUBIT_ID 18 #
point $-1 -1 -1 $-1 -25 -43.301270189221924 25 #
coedge $-1 -1 -1 $-1 $204 $204 $239 $283 forward $254 $-1 #
coedge $-1 -1 -1 $-1 $291 $292 $204 $152 reversed $293 $-1 #
loop $-1 -1 -1 $-1 $-1 $252 $294 T -50 -43.301270189221924 24.999999999999993 -25 43.301270189221931 25.000000000000028 unknown #
coedge $-1 -1 -1 $-1 $256 $210 $206 $213 reversed $257 $-1 #
coedge $-1 -1 -1 $-1 $210 $255 $295 $296 reversed $257 $-1 #
loop $-1 -1 -1 $-1 $-1 $210 $297 T -25.000000000000007 24.999999999999883 -25.000000000000007 1.0125233984581428e-13 50 25.000000000000028 unknown #
integer_attrib-name_attrib-gen-attrib $-1 -1 $-1 $-1 $211 2 1 1 1 1 1 1 1 1 1 1 1 1 1 0 1 1 1 @8 CUBIT_ID 32 #
intcurve-curve $-1 -1 -1 $-1 forward { exactcur full nurbs 2 open 2 
	0 2 136.93063937629157 2 
	-25 -43.301270189221938 24.999999999999993 1 
	50.000000000000028 0 -50.000000000000021 1 
	-25 43.301270189221938 24.999999999999993 1 
	0 
	null_surface 
	null_surface 
	nullbs 
	nullbs 
	-1 
	-1 
	I I 
	0 
	0 
	0 
	
	-1 
	none F F 1 F 0 } I I #
integer_attrib-name_attrib-gen-attrib $-1 -1 $-1 $-1 $213 2 1 1 1 1 1 1 1 1 1 1 1 1 1 0 1 1 1 @8 CUBIT_ID 34 #
intcurve-curve $-1 -1 -1 $-1 forward { exactcur full nurbs 2 open 2 
	0 2 136.93063937629148 2 
	-24.999999999999996 43.301270189221931 -25.000000000000007 1 
	49.999999999999943 0 49.999999999999936 1 
	-24.999999999999996 -43.301270189221931 -25.000000000000007 1 
	0 
	null_surface 
	null_surface 
	nullbs 
	nullbs 
	-1 
	-1 
	I I 
	0 
	0 
	0 
	
	-1 
	none F F 1 F 0 } I I #
coedge $-1 -1 -1 $-1 $298 $267 $215 $263 reversed $299 $-1 #
edge $300 -1 -1 $-1 $203 0 $218 28.936848936041208 $215 $301 forward @7 unknown T -25 -43.301270189221938 -1.2434497875801753e-13 1.2256862191861728e-13 -24.999999999999886 25 #
face $302 -1 -1 $-1 $303 $216 $5 $-1 $173 forward single T -25.000000000000014 -50 -1.2434497875801753e-13 25.000000000000018 -24.999999999999858 25.000000000000028 F #
integer_attrib-name_attrib-gen-attrib $-1 -1 $-1 $-1 $218 2 1 1 1 1 1 1 1 1 1 1 1 1 1 0 1 1 1 @8 CUBIT_ID 16 #
point $-1 -1 -1 $-1 -1.5308084989341911e-15 -25 -1.8746997283273212e-31 #
coedge $-1 -1 -1 $-1 $262 $298 $220 $268 reversed $299 $-1 #
edge $304 -1 -1 $-1 $218 107.99379044025019 $137 136.93063937629148 $220 $305 forward @7 unknown T -25 -43.301270189221931 -25.000000000000007 1.5987211554602254e-13 -24.999999999999826 1.4921397450962104e-13 #
face $306 -1 -1 $-1 $307 $221 $5 $-1 $226 forward single T -25.000000000000011 -50 -25.000000000000007 25.000000000000011 -24.999999999999826 1.4921397450962104e-13 F #
integer_attrib-name_attrib-gen-attrib $-1 -1 $-1 $-1 $225 2 1 1 1 1 1 1 1 1 1 1 1 1 1 0 1 1 1 @8 CUBIT_ID 24 #
coedge $-1 -1 -1 $-1 $234 $228 $308 $309 reversed $272 $-1 #
loop $-1 -1 -1 $-1 $-1 $228 $310 T -25 -43.301270189221931 -50 5.3290705182007514e-15 43.301270189221931 -25 unknown #
integer_attrib-name_attrib-gen-attrib $-1 -1 $-1 $-1 $229 2 1 1 1 1 1 1 1 1 1 1 1 1 1 0 1 1 1 @8 CUBIT_ID 38 #
intcurve-curve $-1 -1 -1 $-1 forward { exactcur full nurbs 2 open 2 
	0 2 99.999999999999986 2 
	-24.999999999999996 -43.301270189221931 -25 1 
	12.500000000000011 0 -25 1.9999999999999978 
	-24.999999999999996 43.301270189221931 -25 1 
	0 
	null_surface 
	null_surface 
	nullbs 
	nullbs 
	-1 
	-1 
	I I 
	0 
	0 
	0 
	
	-1 
	none F F 1 F 0 } I I #
integer_attrib-name_attrib-gen-attrib $-1 -1 $-1 $-1 $230 2 1 1 1 1 1 1 1 1 1 1 1 1 1 0 1 1 1 @8 CUBIT_ID 25 #
integer_attrib-name_attrib-gen-attrib $-1 -1 $-1 $-1 $232 2 1 1 1 1 1 1 1 1 1 1 1 1 1 0 1 1 1 @8 CUBIT_ID 36 #
integer_attrib-name_attrib-gen-attrib $-1 -1 $-1 $-1 $235 2 1 1 1 1 1 1 1 1 1 1 1 1 1 0 1 1 1 @8 CUBIT_ID 33 #
integer_attrib-name_attrib-gen-attrib $-1 -1 $-1 $-1 $237 2 1 1 1 1 1 1 1 1 1 1 1 1 1 0 1 1 1 @8 CUBIT_ID 29 #
face $311 -1 -1 $-1 $312 $313 $5 $-1 $187 forward single T -25 -50 -25.000000000000011 -25 0 25.000000000000011 F #
loop $-1 -1 -1 $-1 $-1 $314 $237 T -25.000000000000007 0 -25.000000000000007 -25 50 25.000000000000028 unknown #
coedge $-1 -1 -1 $-1 $308 $308 $286 $315 reversed $238 $-1 #
coedge $-1 -1 -1 $-1 $239 $239 $243 $289 forward $186 $-1 #
edge $316 -1 -1 $-1 $203 -43.301270189221924 $104 43.301270189221931 $252 $317 forward @7 unknown T -25.000000000000007 -43.301270189221924 24.999999999999996 -25 43.301270189221931 25.000000000000028 #
integer_attrib-name_attrib-gen-attrib $-1 -1 $-1 $-1 $241 2 1 1 1 1 1 1 1 1 1 1 1 1 1 0 1 1 1 @8 CUBIT_ID 20 #
point $-1 -1 -1 $-1 -25 43.301270189221931 -25.000000000000007 #
coedge $-1 -1 -1 $-1 $242 $242 $281 $315 forward $288 $-1 #
coedge $-1 -1 -1 $-1 $318 $319 $242 $189 reversed $320 $-1 #
loop $-1 -1 -1 $-1 $-1 $286 $321 T -50 -43.301270189221938 -25.000000000000007 -24.999999999999968 43.301270189221931 -25 unknown #
edge $322 -1 -1 $-1 $203 2.0943951023931957 $104 4.1887902047863905 $282 $323 forward @7 unknown T -25.000000000000007 -43.301270189221924 25 -25 43.301270189221931 50 #
face $324 -1 -1 $-1 $297 $244 $5 $-1 $325 forward single T -25.000000000000007 -43.301270189221938 24.999999999999996 3.5527136788005009e-15 43.301270189221938 50 F #
coedge $-1 -1 -1 $-1 $292 $253 $314 $326 forward $293 $-1 #
coedge $-1 -1 -1 $-1 $253 $291 $327 $328 forward $293 $-1 #
loop $-1 -1 -1 $-1 $-1 $291 $303 T -50 -43.301270189221945 -4.8379738372686331e-15 -25 43.301270189221945 25.000000000000028 unknown #
face $329 -1 -1 $-1 $264 $254 $5 $-1 $102 forward single T -50 -43.301270189221924 24.999999999999993 -25 43.301270189221931 25.000000000000028 F #
coedge $-1 -1 -1 $-1 $330 $314 $256 $296 forward $280 $-1 #
edge $331 -1 -1 $-1 $104 4.1887902047863905 $241 5.2359877559829888 $295 $323 forward @7 unknown T -25.000000000000007 43.301270189221917 -25.000000000000007 -25 50 25.000000000000028 #
face $332 -1 -1 $-1 $310 $257 $5 $-1 $325 forward single T -25.000000000000007 24.999999999999883 -25.000000000000007 1.0125233984581428e-13 50 25.000000000000028 F #
coedge $-1 -1 -1 $-1 $267 $262 $333 $334 reversed $299 $-1 #
loop $-1 -1 -1 $-1 $-1 $262 $312 T -25 -50 -25.000000000000011 1.5987211554602254e-13 -24.999999999999826 25.000000000000011 unknown #
integer_attrib-name_attrib-gen-attrib $-1 -1 $-1 $-1 $263 2 1 1 1 1 1 1 1 1 1 1 1 1 1 0 1 1 1 @8 CUBIT_ID 49 #
intcurve-curve $-1 -1 -1 $-1 forward { ref 7 } I I #
integer_attrib-name_attrib-gen-attrib $-1 -1 $-1 $-1 $264 2 1 1 1 1 1 1 1 1 1 1 1 1 1 0 1 1 1 @8 CUBIT_ID 36 #
face $335 -1 -1 $-1 $321 $293 $5 $-1 $173 forward single T -50 -43.301270189221945 -4.8379738372686331e-15 -25 43.301270189221945 25.000000000000028 F #
integer_attrib-name_attrib-gen-attrib $-1 -1 $-1 $-1 $268 2 1 1 1 1 1 1 1 1 1 1 1 1 1 0 1 1 1 @8 CUBIT_ID 50 #
intcurve-curve $-1 -1 -1 $-1 forward { ref 8 } I I #
integer_attrib-name_attrib-gen-attrib $-1 -1 $-1 $-1 $269 2 1 1 1 1 1 1 1 1 1 1 1 1 1 0 1 1 1 @8 CUBIT_ID 39 #
face $336 -1 -1 $-1 $-1 $320 $5 $-1 $226 forward single T -50 -43.301270189221938 -25.000000000000007 -24.999999999999968 43.301270189221931 8.4376949871511897e-15 F #
coedge $-1 -1 -1 $-1 $281 $281 $271 $309 forward $238 $-1 #
edge $337 -1 -1 $-1 $241 -1.0471975511965974 $137 1.0471975511965974 $308 $323 forward @7 unknown T -25 -43.301270189221931 -50 -24.999999999999996 43.301270189221931 -25.000000000000007 #
face $338 -1 -1 $-1 $294 $272 $5 $-1 $325 forward single T -25 -43.301270189221931 -50 5.3290705182007514e-15 43.301270189221931 -25 F #
integer_attrib-name_attrib-gen-attrib $-1 -1 $-1 $-1 $279 2 1 1 1 1 1 1 1 1 1 1 1 1 1 0 1 1 1 @8 CUBIT_ID 30 #
face $339 -1 -1 $-1 $290 $299 $5 $-1 $325 forward single T -25 -50 -25.000000000000011 1.5987211554602254e-13 -24.999999999999826 25.000000000000011 F #
loop $-1 -1 -1 $-1 $-1 $327 $279 T -25 -50 -25.000000000000011 -25 0 25.000000000000011 unknown #
coedge $-1 -1 -1 $-1 $295 $330 $291 $326 reversed $280 $-1 #
edge $340 -1 -1 $-1 $241 -43.301270189221931 $137 43.301270189221931 $286 $341 forward @7 unknown T -25 -43.301270189221931 -25.000000000000007 -25 43.301270189221931 -25 #
integer_attrib-name_attrib-gen-attrib $-1 -1 $-1 $-1 $283 2 1 1 1 1 1 1 1 1 1 1 1 1 1 0 1 1 1 @8 CUBIT_ID 39 #
straight-curve $-1 -1 -1 $-1 -25 0 24.999999999999996 0 1 0 I I #
coedge $-1 -1 -1 $-1 $319 $287 $342 $343 forward $320 $-1 #
coedge $-1 -1 -1 $-1 $287 $318 $330 $344 forward $320 $-1 #
loop $-1 -1 -1 $-1 $-1 $319 $307 T -50 -43.301270189221938 -25.000000000000007 -24.999999999999968 43.301270189221931 8.4376949871511897e-15 unknown #
face $345 -1 -1 $-1 $269 $288 $5 $-1 $135 forward single T -50 -43.301270189221938 -25.000000000000007 -24.999999999999968 43.301270189221931 -25 F #
integer_attrib-name_attrib-gen-attrib $-1 -1 $-1 $-1 $289 2 1 1 1 1 1 1 1 1 1 1 1 1 1 0 1 1 1 @8 CUBIT_ID 40 #
ellipse-curve $-1 -1 -1 $-1 -25 0 -1.5308084989341911e-15 -1 0 -6.1232339957367648e-17 3.0616169978683823e-15 0 -50 1 I I #
integer_attrib-name_attrib-gen-attrib $-1 -1 $-1 $-1 $290 2 1 1 1 1 1 1 1 1 1 1 1 1 1 0 1 1 1 @8 CUBIT_ID 32 #
cone-surface $-1 -1 -1 $-1 0 0 0 1 0 6.1232339957367648e-17 1.5308084989341911e-15 0 -25 1 I I -0.70710678118654746 0.70710678118654746 25 forward I I I I #
edge $346 -1 -1 $-1 $104 0 $347 50.67706890227808 $291 $348 forward @7 unknown T -25.000000000000007 0 -4.8379738372686331e-15 -25 43.301270189221945 25.000000000000028 #
coedge $-1 -1 -1 $-1 $342 $333 $292 $328 reversed $313 $-1 #
edge $349 -1 -1 $-1 $347 50.67706890227808 $203 101.35413780455616 $292 $350 forward @7 unknown T -25 -43.301270189221945 -4.8379738372686331e-15 -25 0 25.000000000000007 #
integer_attrib-name_attrib-gen-attrib $-1 -1 $-1 $-1 $294 2 1 1 1 1 1 1 1 1 1 1 1 1 1 0 1 1 1 @8 CUBIT_ID 35 #
coedge $-1 -1 -1 $-1 $314 $295 $319 $344 reversed $280 $-1 #
integer_attrib-name_attrib-gen-attrib $-1 -1 $-1 $-1 $296 2 1 1 1 1 1 1 1 1 1 1 1 1 1 0 1 1 1 @8 CUBIT_ID 44 #
integer_attrib-name_attrib-gen-attrib $-1 -1 $-1 $-1 $297 2 1 1 1 1 1 1 1 1 1 1 1 1 1 0 1 1 1 @8 CUBIT_ID 33 #
coedge $-1 -1 -1 $-1 $327 $342 $298 $334 forward $313 $-1 #
edge $351 -1 -1 $-1 $137 1.0471975511965974 $203 2.0943951023931957 $333 $323 forward @7 unknown T -25 -50 -25.000000000000011 -25 -43.301270189221917 25.000000000000011 #
integer_attrib-name_attrib-gen-attrib $-1 -1 $-1 $-1 $303 2 1 1 1 1 1 1 1 1 1 1 1 1 1 0 1 1 1 @8 CUBIT_ID 37 #
integer_attrib-name_attrib-gen-attrib $-1 -1 $-1 $-1 $307 2 1 1 1 1 1 1 1 1 1 1 1 1 1 0 1 1 1 @8 CUBIT_ID 40 #
integer_attrib-name_attrib-gen-attrib $-1 -1 $-1 $-1 $309 2 1 1 1 1 1 1 1 1 1 1 1 1 1 0 1 1 1 @8 CUBIT_ID 42 #
integer_attrib-name_attrib-gen-attrib $-1 -1 $-1 $-1 $310 2 1 1 1 1 1 1 1 1 1 1 1 1 1 0 1 1 1 @8 CUBIT_ID 34 #
integer_attrib-name_attrib-gen-attrib $-1 -1 $-1 $-1 $312 2 1 1 1 1 1 1 1 1 1 1 1 1 1 0 1 1 1 @8 CUBIT_ID 31 #
integer_attrib-name_attrib-gen-attrib $-1 -1 $-1 $-1 $315 2 1 1 1 1 1 1 1 1 1 1 1 1 1 0 1 1 1 @8 CUBIT_ID 41 #
straight-curve $-1 -1 -1 $-1 -25 0 -25 0 -1 -0 I I #
coedge $-1 -1 -1 $-1 $333 $327 $318 $343 reversed $313 $-1 #
edge $352 -1 -1 $-1 $137 0 $347 50.677068902278059 $318 $353 forward @7 unknown T -25 -43.301270189221931 -25.000000000000007 -25 0 8.4376949871511897e-15 #
edge $354 -1 -1 $-1 $347 50.677068902278059 $241 101.35413780455612 $319 $355 forward @7 unknown T -25 0 -25.000000000000007 -25 43.301270189221931 8.4376949871511897e-15 #
integer_attrib-name_attrib-gen-attrib $-1 -1 $-1 $-1 $321 2 1 1 1 1 1 1 1 1 1 1 1 1 1 0 1 1 1 @8 CUBIT_ID 38 #
integer_attrib-name_attrib-gen-attrib $-1 -1 $-1 $-1 $326 2 1 1 1 1 1 1 1 1 1 1 1 1 1 0 1 1 1 @8 CUBIT_ID 43 #
vertex $356 -1 -1 $-1 $343 $357 #
intcurve-curve $-1 -1 -1 $-1 forward { exactcur full nurbs 2 open 3 
	0 2 50.67706890227808 2 101.35413780455616 2 
	-25 43.301270189221945 25.000000000000007 1 
	-25 14.433756729740649 -1.7763568394002505e-15 1.2247448713915896 
	-25 0 -4.8379738372686331e-15 1 
	-25 -14.433756729740649 -1.7763568394002505e-15 1.2247448713915896 
	-25 -43.301270189221945 25.000000000000007 1 
	0 
	null_surface 
	null_surface 
	nullbs 
	nullbs 
	-1 
	-1 
	I I 
	0 
	0 
	0 
	
	-1 
	none F F 1 F 0 } I I #
integer_attrib-name_attrib-gen-attrib $-1 -1 $-1 $-1 $328 2 1 1 1 1 1 1 1 1 1 1 1 1 1 0 1 1 1 @8 CUBIT_ID 46 #
intcurve-curve $-1 -1 -1 $-1 forward { ref 10 } I I #
integer_attrib-name_attrib-gen-attrib $-1 -1 $-1 $-1 $334 2 1 1 1 1 1 1 1 1 1 1 1 1 1 0 1 1 1 @8 CUBIT_ID 48 #
integer_attrib-name_attrib-gen-attrib $-1 -1 $-1 $-1 $343 2 1 1 1 1 1 1 1 1 1 1 1 1 1 0 1 1 1 @8 CUBIT_ID 47 #
intcurve-curve $-1 -1 -1 $-1 forward { exactcur full nurbs 2 open 3 
	0 2 50.677068902278059 2 101.35413780455612 2 
	-25 -43.301270189221931 -24.999999999999996 1 
	-25 -14.433756729740633 8.4376949871511897e-15 1.2247448713915907 
	-25 0 3.3071653383344406e-15 1 
	-25 14.433756729740633 8.4376949871511897e-15 1.2247448713915907 
	-25 43.301270189221931 -24.999999999999996 1 
	0 
	null_surface 
	null_surface 
	nullbs 
	nullbs 
	-1 
	-1 
	I I 
	0 
	0 
	0 
	
	-1 
	none F F 1 F 0 } I I #
integer_attrib-name_attrib-gen-attrib $-1 -1 $-1 $-1 $344 2 1 1 1 1 1 1 1 1 1 1 1 1 1 0 1 1 1 @8 CUBIT_ID 45 #
intcurve-curve $-1 -1 -1 $-1 forward { ref 11 } I I #
integer_attrib-name_attrib-gen-attrib $-1 -1 $-1 $-1 $347 2 1 1 1 1 1 1 1 1 1 1 1 1 1 0 1 1 1 @8 CUBIT_ID 22 #
point $-1 -1 -1 $-1 -25 0 -3.0616169978683823e-15 #
End-of-ACIS-data 