solid MOAB
facet normal -1.000000e+00 0.000000e+00 0.000000e+00
outer loop
vertex -5.000000e+00 -5.000000e+00 7.000000e+01
vertex -5.000000e+00 -5.000000e+00 8.000000e+01
vertex -5.000000e+00 5.000000e+00 7.000000e+01
endloop
endfacet
facet normal -1.000000e+00 0.000000e+00 0.000000e+00
outer loop
vertex -5.000000e+00 5.000000e+00 7.000000e+01
vertex -5.000000e+00 -5.000000e+00 8.000000e+01
vertex -5.000000e+00 5.000000e+00 8.000000e+01
endloop
endfacet
facet normal 1.000000e+00 0.000000e+00 -0.000000e+00
outer loop
vertex 5.000000e+00 5.000000e+00 1.000000e+01
vertex 5.000000e+00 5.000000e+00 2.000000e+01
vertex 5.000000e+00 -5.000000e+00 1.000000e+01
endloop
endfacet
facet normal 1.000000e+00 0.000000e+00 0.000000e+00
outer loop
vertex 5.000000e+00 -5.000000e+00 1.000000e+01
vertex 5.000000e+00 5.000000e+00 2.000000e+01
vertex 5.000000e+00 -5.000000e+00 2.000000e+01
endloop
endfacet
facet normal 0.000000e+00 0.000000e+00 1.000000e+00
outer loop
vertex -5.000000e+00 -5.000000e+00 1.000000e+01
vertex 5.000000e+00 -5.000000e+00 1.000000e+01
vertex -5.000000e+00 5.000000e+00 1.000000e+01
endloop
endfacet
facet normal -0.000000e+00 0.000000e+00 1.000000e+00
outer loop
vertex -5.000000e+00 5.000000e+00 1.000000e+01
vertex 5.000000e+00 -5.000000e+00 1.000000e+01
vertex 5.000000e+00 5.000000e+00 1.000000e+01
endloop
endfacet
facet normal 0.000000e+00 0.000000e+00 -1.000000e+00
outer loop
vertex 5.100000e+00 -5.100000e+00 -1.000000e-01
vertex -5.100000e+00 -5.100000e+00 -1.000000e-01
vertex 5.100000e+00 5.100000e+00 -1.000000e-01
endloop
endfacet
facet normal -0.000000e+00 0.000000e+00 -1.000000e+00
outer loop
vertex 5.100000e+00 5.100000e+00 -1.000000e-01
vertex -5.100000e+00 -5.100000e+00 -1.000000e-01
vertex -5.100000e+00 5.100000e+00 -1.000000e-01
endloop
endfacet
facet normal 0.000000e+00 0.000000e+00 1.000000e+00
outer loop
vertex 5.100000e+00 5.100000e+00 1.001000e+02
vertex -5.100000e+00 5.100000e+00 1.001000e+02
vertex 5.100000e+00 -5.100000e+00 1.001000e+02
endloop
endfacet
facet normal 0.000000e+00 0.000000e+00 1.000000e+00
outer loop
vertex 5.100000e+00 -5.100000e+00 1.001000e+02
vertex -5.100000e+00 5.100000e+00 1.001000e+02
vertex -5.100000e+00 -5.100000e+00 1.001000e+02
endloop
endfacet
facet normal 0.000000e+00 -9.999999e-01 0.000000e+00
outer loop
vertex -5.100000e+00 -5.100000e+00 1.001000e+02
vertex -5.100000e+00 -5.100000e+00 -1.000000e-01
vertex 5.100000e+00 -5.100000e+00 1.001000e+02
endloop
endfacet
facet normal 0.000000e+00 -9.999999e-01 -0.000000e+00
outer loop
vertex 5.100000e+00 -5.100000e+00 1.001000e+02
vertex -5.100000e+00 -5.100000e+00 -1.000000e-01
vertex 5.100000e+00 -5.100000e+00 -1.000000e-01
endloop
endfacet
facet normal -9.999999e-01 -0.000000e+00 -0.000000e+00
outer loop
vertex -5.100000e+00 5.100000e+00 1.001000e+02
vertex -5.100000e+00 5.100000e+00 -1.000000e-01
vertex -5.100000e+00 -5.100000e+00 1.001000e+02
endloop
endfacet
facet normal -9.999999e-01 0.000000e+00 0.000000e+00
outer loop
vertex -5.100000e+00 -5.100000e+00 1.001000e+02
vertex -5.100000e+00 5.100000e+00 -1.000000e-01
vertex -5.100000e+00 -5.100000e+00 -1.000000e-01
endloop
endfacet
facet normal 0.000000e+00 9.999999e-01 0.000000e+00
outer loop
vertex 5.100000e+00 5.100000e+00 1.001000e+02
vertex 5.100000e+00 5.100000e+00 -1.000000e-01
vertex -5.100000e+00 5.100000e+00 1.001000e+02
endloop
endfacet
facet normal 0.000000e+00 9.999999e-01 0.000000e+00
outer loop
vertex -5.100000e+00 5.100000e+00 1.001000e+02
vertex 5.100000e+00 5.100000e+00 -1.000000e-01
vertex -5.100000e+00 5.100000e+00 -1.000000e-01
endloop
endfacet
facet normal 9.999999e-01 -0.000000e+00 0.000000e+00
outer loop
vertex 5.100000e+00 -5.100000e+00 1.001000e+02
vertex 5.100000e+00 -5.100000e+00 -1.000000e-01
vertex 5.100000e+00 5.100000e+00 1.001000e+02
endloop
endfacet
facet normal 9.999999e-01 0.000000e+00 0.000000e+00
outer loop
vertex 5.100000e+00 5.100000e+00 1.001000e+02
vertex 5.100000e+00 -5.100000e+00 -1.000000e-01
vertex 5.100000e+00 5.100000e+00 -1.000000e-01
endloop
endfacet
facet normal -1.000000e+00 0.000000e+00 0.000000e+00
outer loop
vertex -5.000000e+00 -5.000000e+00 9.000000e+01
vertex -5.000000e+00 -5.000000e+00 1.000000e+02
vertex -5.000000e+00 5.000000e+00 9.000000e+01
endloop
endfacet
facet normal -1.000000e+00 0.000000e+00 0.000000e+00
outer loop
vertex -5.000000e+00 5.000000e+00 9.000000e+01
vertex -5.000000e+00 -5.000000e+00 1.000000e+02
vertex -5.000000e+00 5.000000e+00 1.000000e+02
endloop
endfacet
facet normal 0.000000e+00 -1.000000e+00 0.000000e+00
outer loop
vertex 5.000000e+00 -5.000000e+00 8.000000e+01
vertex 5.000000e+00 -5.000000e+00 9.000000e+01
vertex -5.000000e+00 -5.000000e+00 8.000000e+01
endloop
endfacet
facet normal 0.000000e+00 -1.000000e+00 0.000000e+00
outer loop
vertex -5.000000e+00 -5.000000e+00 8.000000e+01
vertex 5.000000e+00 -5.000000e+00 9.000000e+01
vertex -5.000000e+00 -5.000000e+00 9.000000e+01
endloop
endfacet
facet normal 0.000000e+00 1.000000e+00 0.000000e+00
outer loop
vertex -5.000000e+00 5.000000e+00 9.000000e+01
vertex -5.000000e+00 5.000000e+00 1.000000e+02
vertex 5.000000e+00 5.000000e+00 9.000000e+01
endloop
endfacet
facet normal 0.000000e+00 1.000000e+00 -0.000000e+00
outer loop
vertex 5.000000e+00 5.000000e+00 9.000000e+01
vertex -5.000000e+00 5.000000e+00 1.000000e+02
vertex 5.000000e+00 5.000000e+00 1.000000e+02
endloop
endfacet
facet normal 1.000000e+00 0.000000e+00 -0.000000e+00
outer loop
vertex 5.000000e+00 5.000000e+00 9.000000e+01
vertex 5.000000e+00 5.000000e+00 1.000000e+02
vertex 5.000000e+00 -5.000000e+00 9.000000e+01
endloop
endfacet
facet normal 1.000000e+00 0.000000e+00 0.000000e+00
outer loop
vertex 5.000000e+00 -5.000000e+00 9.000000e+01
vertex 5.000000e+00 5.000000e+00 1.000000e+02
vertex 5.000000e+00 -5.000000e+00 1.000000e+02
endloop
endfacet
facet normal 0.000000e+00 -1.000000e+00 0.000000e+00
outer loop
vertex 5.000000e+00 -5.000000e+00 9.000000e+01
vertex 5.000000e+00 -5.000000e+00 1.000000e+02
vertex -5.000000e+00 -5.000000e+00 9.000000e+01
endloop
endfacet
facet normal 0.000000e+00 -1.000000e+00 0.000000e+00
outer loop
vertex -5.000000e+00 -5.000000e+00 9.000000e+01
vertex 5.000000e+00 -5.000000e+00 1.000000e+02
vertex -5.000000e+00 -5.000000e+00 1.000000e+02
endloop
endfacet
facet normal 1.000000e+00 0.000000e+00 -0.000000e+00
outer loop
vertex 5.000000e+00 5.000000e+00 7.000000e+01
vertex 5.000000e+00 5.000000e+00 8.000000e+01
vertex 5.000000e+00 -5.000000e+00 7.000000e+01
endloop
endfacet
facet normal 1.000000e+00 0.000000e+00 0.000000e+00
outer loop
vertex 5.000000e+00 -5.000000e+00 7.000000e+01
vertex 5.000000e+00 5.000000e+00 8.000000e+01
vertex 5.000000e+00 -5.000000e+00 8.000000e+01
endloop
endfacet
facet normal -1.000000e+00 0.000000e+00 0.000000e+00
outer loop
vertex -5.000000e+00 -5.000000e+00 8.000000e+01
vertex -5.000000e+00 -5.000000e+00 9.000000e+01
vertex -5.000000e+00 5.000000e+00 8.000000e+01
endloop
endfacet
facet normal -1.000000e+00 0.000000e+00 0.000000e+00
outer loop
vertex -5.000000e+00 5.000000e+00 8.000000e+01
vertex -5.000000e+00 -5.000000e+00 9.000000e+01
vertex -5.000000e+00 5.000000e+00 9.000000e+01
endloop
endfacet
facet normal 0.000000e+00 1.000000e+00 0.000000e+00
outer loop
vertex -5.000000e+00 5.000000e+00 8.000000e+01
vertex -5.000000e+00 5.000000e+00 9.000000e+01
vertex 5.000000e+00 5.000000e+00 8.000000e+01
endloop
endfacet
facet normal 0.000000e+00 1.000000e+00 -0.000000e+00
outer loop
vertex 5.000000e+00 5.000000e+00 8.000000e+01
vertex -5.000000e+00 5.000000e+00 9.000000e+01
vertex 5.000000e+00 5.000000e+00 9.000000e+01
endloop
endfacet
facet normal 1.000000e+00 0.000000e+00 -0.000000e+00
outer loop
vertex 5.000000e+00 5.000000e+00 8.000000e+01
vertex 5.000000e+00 5.000000e+00 9.000000e+01
vertex 5.000000e+00 -5.000000e+00 8.000000e+01
endloop
endfacet
facet normal 1.000000e+00 0.000000e+00 0.000000e+00
outer loop
vertex 5.000000e+00 -5.000000e+00 8.000000e+01
vertex 5.000000e+00 5.000000e+00 9.000000e+01
vertex 5.000000e+00 -5.000000e+00 9.000000e+01
endloop
endfacet
facet normal 0.000000e+00 1.000000e+00 0.000000e+00
outer loop
vertex -5.000000e+00 5.000000e+00 6.000000e+01
vertex -5.000000e+00 5.000000e+00 7.000000e+01
vertex 5.000000e+00 5.000000e+00 6.000000e+01
endloop
endfacet
facet normal 0.000000e+00 1.000000e+00 -0.000000e+00
outer loop
vertex 5.000000e+00 5.000000e+00 6.000000e+01
vertex -5.000000e+00 5.000000e+00 7.000000e+01
vertex 5.000000e+00 5.000000e+00 7.000000e+01
endloop
endfacet
facet normal 0.000000e+00 -1.000000e+00 0.000000e+00
outer loop
vertex 5.000000e+00 -5.000000e+00 7.000000e+01
vertex 5.000000e+00 -5.000000e+00 8.000000e+01
vertex -5.000000e+00 -5.000000e+00 7.000000e+01
endloop
endfacet
facet normal 0.000000e+00 -1.000000e+00 0.000000e+00
outer loop
vertex -5.000000e+00 -5.000000e+00 7.000000e+01
vertex 5.000000e+00 -5.000000e+00 8.000000e+01
vertex -5.000000e+00 -5.000000e+00 8.000000e+01
endloop
endfacet
facet normal 0.000000e+00 1.000000e+00 0.000000e+00
outer loop
vertex -5.000000e+00 5.000000e+00 7.000000e+01
vertex -5.000000e+00 5.000000e+00 8.000000e+01
vertex 5.000000e+00 5.000000e+00 7.000000e+01
endloop
endfacet
facet normal 0.000000e+00 1.000000e+00 -0.000000e+00
outer loop
vertex 5.000000e+00 5.000000e+00 7.000000e+01
vertex -5.000000e+00 5.000000e+00 8.000000e+01
vertex 5.000000e+00 5.000000e+00 8.000000e+01
endloop
endfacet
facet normal -1.000000e+00 0.000000e+00 0.000000e+00
outer loop
vertex -5.000000e+00 -5.000000e+00 5.000000e+01
vertex -5.000000e+00 -5.000000e+00 6.000000e+01
vertex -5.000000e+00 5.000000e+00 5.000000e+01
endloop
endfacet
facet normal -1.000000e+00 0.000000e+00 0.000000e+00
outer loop
vertex -5.000000e+00 5.000000e+00 5.000000e+01
vertex -5.000000e+00 -5.000000e+00 6.000000e+01
vertex -5.000000e+00 5.000000e+00 6.000000e+01
endloop
endfacet
facet normal 1.000000e+00 0.000000e+00 -0.000000e+00
outer loop
vertex 5.000000e+00 5.000000e+00 6.000000e+01
vertex 5.000000e+00 5.000000e+00 7.000000e+01
vertex 5.000000e+00 -5.000000e+00 6.000000e+01
endloop
endfacet
facet normal 1.000000e+00 0.000000e+00 0.000000e+00
outer loop
vertex 5.000000e+00 -5.000000e+00 6.000000e+01
vertex 5.000000e+00 5.000000e+00 7.000000e+01
vertex 5.000000e+00 -5.000000e+00 7.000000e+01
endloop
endfacet
facet normal 0.000000e+00 -1.000000e+00 0.000000e+00
outer loop
vertex 5.000000e+00 -5.000000e+00 6.000000e+01
vertex 5.000000e+00 -5.000000e+00 7.000000e+01
vertex -5.000000e+00 -5.000000e+00 6.000000e+01
endloop
endfacet
facet normal 0.000000e+00 -1.000000e+00 0.000000e+00
outer loop
vertex -5.000000e+00 -5.000000e+00 6.000000e+01
vertex 5.000000e+00 -5.000000e+00 7.000000e+01
vertex -5.000000e+00 -5.000000e+00 7.000000e+01
endloop
endfacet
facet normal -1.000000e+00 0.000000e+00 0.000000e+00
outer loop
vertex -5.000000e+00 -5.000000e+00 6.000000e+01
vertex -5.000000e+00 -5.000000e+00 7.000000e+01
vertex -5.000000e+00 5.000000e+00 6.000000e+01
endloop
endfacet
facet normal -1.000000e+00 0.000000e+00 0.000000e+00
outer loop
vertex -5.000000e+00 5.000000e+00 6.000000e+01
vertex -5.000000e+00 -5.000000e+00 7.000000e+01
vertex -5.000000e+00 5.000000e+00 7.000000e+01
endloop
endfacet
facet normal 0.000000e+00 -1.000000e+00 0.000000e+00
outer loop
vertex 5.000000e+00 -5.000000e+00 4.000000e+01
vertex 5.000000e+00 -5.000000e+00 5.000000e+01
vertex -5.000000e+00 -5.000000e+00 4.000000e+01
endloop
endfacet
facet normal 0.000000e+00 -1.000000e+00 0.000000e+00
outer loop
vertex -5.000000e+00 -5.000000e+00 4.000000e+01
vertex 5.000000e+00 -5.000000e+00 5.000000e+01
vertex -5.000000e+00 -5.000000e+00 5.000000e+01
endloop
endfacet
facet normal 0.000000e+00 1.000000e+00 0.000000e+00
outer loop
vertex -5.000000e+00 5.000000e+00 5.000000e+01
vertex -5.000000e+00 5.000000e+00 6.000000e+01
vertex 5.000000e+00 5.000000e+00 5.000000e+01
endloop
endfacet
facet normal 0.000000e+00 1.000000e+00 -0.000000e+00
outer loop
vertex 5.000000e+00 5.000000e+00 5.000000e+01
vertex -5.000000e+00 5.000000e+00 6.000000e+01
vertex 5.000000e+00 5.000000e+00 6.000000e+01
endloop
endfacet
facet normal 1.000000e+00 0.000000e+00 -0.000000e+00
outer loop
vertex 5.000000e+00 5.000000e+00 5.000000e+01
vertex 5.000000e+00 5.000000e+00 6.000000e+01
vertex 5.000000e+00 -5.000000e+00 5.000000e+01
endloop
endfacet
facet normal 1.000000e+00 0.000000e+00 0.000000e+00
outer loop
vertex 5.000000e+00 -5.000000e+00 5.000000e+01
vertex 5.000000e+00 5.000000e+00 6.000000e+01
vertex 5.000000e+00 -5.000000e+00 6.000000e+01
endloop
endfacet
facet normal 0.000000e+00 -1.000000e+00 0.000000e+00
outer loop
vertex 5.000000e+00 -5.000000e+00 5.000000e+01
vertex 5.000000e+00 -5.000000e+00 6.000000e+01
vertex -5.000000e+00 -5.000000e+00 5.000000e+01
endloop
endfacet
facet normal 0.000000e+00 -1.000000e+00 0.000000e+00
outer loop
vertex -5.000000e+00 -5.000000e+00 5.000000e+01
vertex 5.000000e+00 -5.000000e+00 6.000000e+01
vertex -5.000000e+00 -5.000000e+00 6.000000e+01
endloop
endfacet
facet normal -1.000000e+00 -0.000000e+00 -0.000000e+00
outer loop
vertex -5.000000e+00 5.000000e+00 1.000000e+01
vertex -5.000000e+00 5.000000e+00 0.000000e+00
vertex -5.000000e+00 -5.000000e+00 1.000000e+01
endloop
endfacet
facet normal -1.000000e+00 0.000000e+00 0.000000e+00
outer loop
vertex -5.000000e+00 -5.000000e+00 1.000000e+01
vertex -5.000000e+00 5.000000e+00 0.000000e+00
vertex -5.000000e+00 -5.000000e+00 0.000000e+00
endloop
endfacet
facet normal 1.000000e+00 0.000000e+00 -0.000000e+00
outer loop
vertex 5.000000e+00 5.000000e+00 3.000000e+01
vertex 5.000000e+00 5.000000e+00 4.000000e+01
vertex 5.000000e+00 -5.000000e+00 3.000000e+01
endloop
endfacet
facet normal 1.000000e+00 0.000000e+00 0.000000e+00
outer loop
vertex 5.000000e+00 -5.000000e+00 3.000000e+01
vertex 5.000000e+00 5.000000e+00 4.000000e+01
vertex 5.000000e+00 -5.000000e+00 4.000000e+01
endloop
endfacet
facet normal -1.000000e+00 0.000000e+00 0.000000e+00
outer loop
vertex -5.000000e+00 -5.000000e+00 4.000000e+01
vertex -5.000000e+00 -5.000000e+00 5.000000e+01
vertex -5.000000e+00 5.000000e+00 4.000000e+01
endloop
endfacet
facet normal -1.000000e+00 0.000000e+00 0.000000e+00
outer loop
vertex -5.000000e+00 5.000000e+00 4.000000e+01
vertex -5.000000e+00 -5.000000e+00 5.000000e+01
vertex -5.000000e+00 5.000000e+00 5.000000e+01
endloop
endfacet
facet normal 0.000000e+00 1.000000e+00 0.000000e+00
outer loop
vertex -5.000000e+00 5.000000e+00 4.000000e+01
vertex -5.000000e+00 5.000000e+00 5.000000e+01
vertex 5.000000e+00 5.000000e+00 4.000000e+01
endloop
endfacet
facet normal 0.000000e+00 1.000000e+00 -0.000000e+00
outer loop
vertex 5.000000e+00 5.000000e+00 4.000000e+01
vertex -5.000000e+00 5.000000e+00 5.000000e+01
vertex 5.000000e+00 5.000000e+00 5.000000e+01
endloop
endfacet
facet normal 1.000000e+00 0.000000e+00 -0.000000e+00
outer loop
vertex 5.000000e+00 5.000000e+00 4.000000e+01
vertex 5.000000e+00 5.000000e+00 5.000000e+01
vertex 5.000000e+00 -5.000000e+00 4.000000e+01
endloop
endfacet
facet normal 1.000000e+00 0.000000e+00 0.000000e+00
outer loop
vertex 5.000000e+00 -5.000000e+00 4.000000e+01
vertex 5.000000e+00 5.000000e+00 5.000000e+01
vertex 5.000000e+00 -5.000000e+00 5.000000e+01
endloop
endfacet
facet normal 0.000000e+00 1.000000e+00 0.000000e+00
outer loop
vertex -5.000000e+00 5.000000e+00 2.000000e+01
vertex -5.000000e+00 5.000000e+00 3.000000e+01
vertex 5.000000e+00 5.000000e+00 2.000000e+01
endloop
endfacet
facet normal 0.000000e+00 1.000000e+00 -0.000000e+00
outer loop
vertex 5.000000e+00 5.000000e+00 2.000000e+01
vertex -5.000000e+00 5.000000e+00 3.000000e+01
vertex 5.000000e+00 5.000000e+00 3.000000e+01
endloop
endfacet
facet normal 0.000000e+00 -1.000000e+00 0.000000e+00
outer loop
vertex 5.000000e+00 -5.000000e+00 3.000000e+01
vertex 5.000000e+00 -5.000000e+00 4.000000e+01
vertex -5.000000e+00 -5.000000e+00 3.000000e+01
endloop
endfacet
facet normal 0.000000e+00 -1.000000e+00 0.000000e+00
outer loop
vertex -5.000000e+00 -5.000000e+00 3.000000e+01
vertex 5.000000e+00 -5.000000e+00 4.000000e+01
vertex -5.000000e+00 -5.000000e+00 4.000000e+01
endloop
endfacet
facet normal -1.000000e+00 0.000000e+00 0.000000e+00
outer loop
vertex -5.000000e+00 -5.000000e+00 3.000000e+01
vertex -5.000000e+00 -5.000000e+00 4.000000e+01
vertex -5.000000e+00 5.000000e+00 3.000000e+01
endloop
endfacet
facet normal -1.000000e+00 0.000000e+00 0.000000e+00
outer loop
vertex -5.000000e+00 5.000000e+00 3.000000e+01
vertex -5.000000e+00 -5.000000e+00 4.000000e+01
vertex -5.000000e+00 5.000000e+00 4.000000e+01
endloop
endfacet
facet normal 0.000000e+00 1.000000e+00 0.000000e+00
outer loop
vertex -5.000000e+00 5.000000e+00 3.000000e+01
vertex -5.000000e+00 5.000000e+00 4.000000e+01
vertex 5.000000e+00 5.000000e+00 3.000000e+01
endloop
endfacet
facet normal 0.000000e+00 1.000000e+00 -0.000000e+00
outer loop
vertex 5.000000e+00 5.000000e+00 3.000000e+01
vertex -5.000000e+00 5.000000e+00 4.000000e+01
vertex 5.000000e+00 5.000000e+00 4.000000e+01
endloop
endfacet
facet normal -1.000000e+00 0.000000e+00 0.000000e+00
outer loop
vertex -5.000000e+00 -5.000000e+00 1.000000e+01
vertex -5.000000e+00 -5.000000e+00 2.000000e+01
vertex -5.000000e+00 5.000000e+00 1.000000e+01
endloop
endfacet
facet normal -1.000000e+00 0.000000e+00 0.000000e+00
outer loop
vertex -5.000000e+00 5.000000e+00 1.000000e+01
vertex -5.000000e+00 -5.000000e+00 2.000000e+01
vertex -5.000000e+00 5.000000e+00 2.000000e+01
endloop
endfacet
facet normal 1.000000e+00 0.000000e+00 -0.000000e+00
outer loop
vertex 5.000000e+00 5.000000e+00 2.000000e+01
vertex 5.000000e+00 5.000000e+00 3.000000e+01
vertex 5.000000e+00 -5.000000e+00 2.000000e+01
endloop
endfacet
facet normal 1.000000e+00 0.000000e+00 0.000000e+00
outer loop
vertex 5.000000e+00 -5.000000e+00 2.000000e+01
vertex 5.000000e+00 5.000000e+00 3.000000e+01
vertex 5.000000e+00 -5.000000e+00 3.000000e+01
endloop
endfacet
facet normal 0.000000e+00 -1.000000e+00 0.000000e+00
outer loop
vertex 5.000000e+00 -5.000000e+00 2.000000e+01
vertex 5.000000e+00 -5.000000e+00 3.000000e+01
vertex -5.000000e+00 -5.000000e+00 2.000000e+01
endloop
endfacet
facet normal 0.000000e+00 -1.000000e+00 0.000000e+00
outer loop
vertex -5.000000e+00 -5.000000e+00 2.000000e+01
vertex 5.000000e+00 -5.000000e+00 3.000000e+01
vertex -5.000000e+00 -5.000000e+00 3.000000e+01
endloop
endfacet
facet normal 0.000000e+00 -1.000000e+00 0.000000e+00
outer loop
vertex -5.000000e+00 -5.000000e+00 1.000000e+01
vertex -5.000000e+00 -5.000000e+00 0.000000e+00
vertex 5.000000e+00 -5.000000e+00 1.000000e+01
endloop
endfacet
facet normal 0.000000e+00 -1.000000e+00 -0.000000e+00
outer loop
vertex 5.000000e+00 -5.000000e+00 1.000000e+01
vertex -5.000000e+00 -5.000000e+00 0.000000e+00
vertex 5.000000e+00 -5.000000e+00 0.000000e+00
endloop
endfacet
facet normal -1.000000e+00 0.000000e+00 0.000000e+00
outer loop
vertex -5.000000e+00 -5.000000e+00 2.000000e+01
vertex -5.000000e+00 -5.000000e+00 3.000000e+01
vertex -5.000000e+00 5.000000e+00 2.000000e+01
endloop
endfacet
facet normal -1.000000e+00 0.000000e+00 0.000000e+00
outer loop
vertex -5.000000e+00 5.000000e+00 2.000000e+01
vertex -5.000000e+00 -5.000000e+00 3.000000e+01
vertex -5.000000e+00 5.000000e+00 3.000000e+01
endloop
endfacet
facet normal 1.000000e+00 -0.000000e+00 0.000000e+00
outer loop
vertex 5.000000e+00 -5.000000e+00 1.000000e+01
vertex 5.000000e+00 -5.000000e+00 0.000000e+00
vertex 5.000000e+00 5.000000e+00 1.000000e+01
endloop
endfacet
facet normal 1.000000e+00 0.000000e+00 0.000000e+00
outer loop
vertex 5.000000e+00 5.000000e+00 1.000000e+01
vertex 5.000000e+00 -5.000000e+00 0.000000e+00
vertex 5.000000e+00 5.000000e+00 0.000000e+00
endloop
endfacet
facet normal 0.000000e+00 1.000000e+00 0.000000e+00
outer loop
vertex 5.000000e+00 5.000000e+00 1.000000e+01
vertex 5.000000e+00 5.000000e+00 0.000000e+00
vertex -5.000000e+00 5.000000e+00 1.000000e+01
endloop
endfacet
facet normal 0.000000e+00 1.000000e+00 0.000000e+00
outer loop
vertex -5.000000e+00 5.000000e+00 1.000000e+01
vertex 5.000000e+00 5.000000e+00 0.000000e+00
vertex -5.000000e+00 5.000000e+00 0.000000e+00
endloop
endfacet
facet normal 0.000000e+00 0.000000e+00 -1.000000e+00
outer loop
vertex 5.000000e+00 -5.000000e+00 1.000000e+02
vertex -5.000000e+00 -5.000000e+00 1.000000e+02
vertex 5.000000e+00 5.000000e+00 1.000000e+02
endloop
endfacet
facet normal -0.000000e+00 0.000000e+00 -1.000000e+00
outer loop
vertex 5.000000e+00 5.000000e+00 1.000000e+02
vertex -5.000000e+00 -5.000000e+00 1.000000e+02
vertex -5.000000e+00 5.000000e+00 1.000000e+02
endloop
endfacet
facet normal 0.000000e+00 0.000000e+00 1.000000e+00
outer loop
vertex 5.000000e+00 5.000000e+00 0.000000e+00
vertex -5.000000e+00 5.000000e+00 0.000000e+00
vertex 5.000000e+00 -5.000000e+00 0.000000e+00
endloop
endfacet
facet normal 0.000000e+00 0.000000e+00 1.000000e+00
outer loop
vertex 5.000000e+00 -5.000000e+00 0.000000e+00
vertex -5.000000e+00 5.000000e+00 0.000000e+00
vertex -5.000000e+00 -5.000000e+00 0.000000e+00
endloop
endfacet
facet normal 0.000000e+00 -1.000000e+00 0.000000e+00
outer loop
vertex 5.000000e+00 -5.000000e+00 1.000000e+01
vertex 5.000000e+00 -5.000000e+00 2.000000e+01
vertex -5.000000e+00 -5.000000e+00 1.000000e+01
endloop
endfacet
facet normal 0.000000e+00 -1.000000e+00 0.000000e+00
outer loop
vertex -5.000000e+00 -5.000000e+00 1.000000e+01
vertex 5.000000e+00 -5.000000e+00 2.000000e+01
vertex -5.000000e+00 -5.000000e+00 2.000000e+01
endloop
endfacet
facet normal 0.000000e+00 1.000000e+00 0.000000e+00
outer loop
vertex -5.000000e+00 5.000000e+00 1.000000e+01
vertex -5.000000e+00 5.000000e+00 2.000000e+01
vertex 5.000000e+00 5.000000e+00 1.000000e+01
endloop
endfacet
facet normal 0.000000e+00 1.000000e+00 -0.000000e+00
outer loop
vertex 5.000000e+00 5.000000e+00 1.000000e+01
vertex -5.000000e+00 5.000000e+00 2.000000e+01
vertex 5.000000e+00 5.000000e+00 2.000000e+01
endloop
endfacet
facet normal 0.000000e+00 0.000000e+00 1.000000e+00
outer loop
vertex -5.000000e+00 -5.000000e+00 2.000000e+01
vertex 5.000000e+00 -5.000000e+00 2.000000e+01
vertex -5.000000e+00 5.000000e+00 2.000000e+01
endloop
endfacet
facet normal -0.000000e+00 0.000000e+00 1.000000e+00
outer loop
vertex -5.000000e+00 5.000000e+00 2.000000e+01
vertex 5.000000e+00 -5.000000e+00 2.000000e+01
vertex 5.000000e+00 5.000000e+00 2.000000e+01
endloop
endfacet
facet normal 0.000000e+00 0.000000e+00 1.000000e+00
outer loop
vertex -5.000000e+00 -5.000000e+00 3.000000e+01
vertex 5.000000e+00 -5.000000e+00 3.000000e+01
vertex -5.000000e+00 5.000000e+00 3.000000e+01
endloop
endfacet
facet normal -0.000000e+00 0.000000e+00 1.000000e+00
outer loop
vertex -5.000000e+00 5.000000e+00 3.000000e+01
vertex 5.000000e+00 -5.000000e+00 3.000000e+01
vertex 5.000000e+00 5.000000e+00 3.000000e+01
endloop
endfacet
facet normal 0.000000e+00 0.000000e+00 1.000000e+00
outer loop
vertex -5.000000e+00 -5.000000e+00 4.000000e+01
vertex 5.000000e+00 -5.000000e+00 4.000000e+01
vertex -5.000000e+00 5.000000e+00 4.000000e+01
endloop
endfacet
facet normal -0.000000e+00 0.000000e+00 1.000000e+00
outer loop
vertex -5.000000e+00 5.000000e+00 4.000000e+01
vertex 5.000000e+00 -5.000000e+00 4.000000e+01
vertex 5.000000e+00 5.000000e+00 4.000000e+01
endloop
endfacet
facet normal 0.000000e+00 0.000000e+00 1.000000e+00
outer loop
vertex -5.000000e+00 -5.000000e+00 5.000000e+01
vertex 5.000000e+00 -5.000000e+00 5.000000e+01
vertex -5.000000e+00 5.000000e+00 5.000000e+01
endloop
endfacet
facet normal -0.000000e+00 0.000000e+00 1.000000e+00
outer loop
vertex -5.000000e+00 5.000000e+00 5.000000e+01
vertex 5.000000e+00 -5.000000e+00 5.000000e+01
vertex 5.000000e+00 5.000000e+00 5.000000e+01
endloop
endfacet
facet normal 0.000000e+00 0.000000e+00 1.000000e+00
outer loop
vertex -5.000000e+00 -5.000000e+00 6.000000e+01
vertex 5.000000e+00 -5.000000e+00 6.000000e+01
vertex -5.000000e+00 5.000000e+00 6.000000e+01
endloop
endfacet
facet normal -0.000000e+00 0.000000e+00 1.000000e+00
outer loop
vertex -5.000000e+00 5.000000e+00 6.000000e+01
vertex 5.000000e+00 -5.000000e+00 6.000000e+01
vertex 5.000000e+00 5.000000e+00 6.000000e+01
endloop
endfacet
facet normal 0.000000e+00 0.000000e+00 1.000000e+00
outer loop
vertex -5.000000e+00 -5.000000e+00 7.000000e+01
vertex 5.000000e+00 -5.000000e+00 7.000000e+01
vertex -5.000000e+00 5.000000e+00 7.000000e+01
endloop
endfacet
facet normal -0.000000e+00 0.000000e+00 1.000000e+00
outer loop
vertex -5.000000e+00 5.000000e+00 7.000000e+01
vertex 5.000000e+00 -5.000000e+00 7.000000e+01
vertex 5.000000e+00 5.000000e+00 7.000000e+01
endloop
endfacet
facet normal 0.000000e+00 0.000000e+00 1.000000e+00
outer loop
vertex -5.000000e+00 -5.000000e+00 8.000000e+01
vertex 5.000000e+00 -5.000000e+00 8.000000e+01
vertex -5.000000e+00 5.000000e+00 8.000000e+01
endloop
endfacet
facet normal -0.000000e+00 0.000000e+00 1.000000e+00
outer loop
vertex -5.000000e+00 5.000000e+00 8.000000e+01
vertex 5.000000e+00 -5.000000e+00 8.000000e+01
vertex 5.000000e+00 5.000000e+00 8.000000e+01
endloop
endfacet
facet normal 0.000000e+00 0.000000e+00 1.000000e+00
outer loop
vertex -5.000000e+00 -5.000000e+00 9.000000e+01
vertex 5.000000e+00 -5.000000e+00 9.000000e+01
vertex -5.000000e+00 5.000000e+00 9.000000e+01
endloop
endfacet
facet normal -0.000000e+00 0.000000e+00 1.000000e+00
outer loop
vertex -5.000000e+00 5.000000e+00 9.000000e+01
vertex 5.000000e+00 -5.000000e+00 9.000000e+01
vertex 5.000000e+00 5.000000e+00 9.000000e+01
endloop
endfacet
endsolid MOAB
