<?xml version="1.0" standalone="yes"?>

<svg version="1.1" viewBox="0.0 0.0 300.4803149606299 312.96062992125985" fill="none" stroke="none" stroke-linecap="square" stroke-miterlimit="10" xmlns="http://www.w3.org/2000/svg" xmlns:xlink="http://www.w3.org/1999/xlink"><clipPath id="p.0"><path d="m0 0l300.48032 0l0 312.96063l-300.48032 0l0 -312.96063z" clip-rule="nonzero"></path></clipPath><g clip-path="url(#p.0)"><path fill="#000000" fill-opacity="0.0" d="m0 0l300.48032 0l0 312.96063l-300.48032 0z" fill-rule="nonzero"></path><path fill="#000000" fill-opacity="0.0" d="m110.94877 275.913l110.69291 -98.36221l-97.523766 -144.76338l-110.69292 98.3622z" fill-rule="nonzero"></path><path fill="#000000" fill-opacity="0.0" d="m221.64168 177.55078l64.47624 8.150009l-97.52379 -144.7634l-64.47622 -8.149998z" fill-rule="nonzero"></path><path fill="#000000" fill-opacity="0.0" d="m110.94877 275.913l64.476234 8.149994l110.69292 -98.3622l-64.47624 -8.150009z" fill-rule="nonzero"></path><path fill="#000000" fill-opacity="0.0" d="m110.94877 275.913l64.476234 8.149994l110.69292 -98.3622l-97.52379 -144.7634l-64.47622 -8.149998l-110.69292 98.3622zm0 0l110.69291 -98.36221l64.47624 8.150009m-64.47624 -8.150009l-97.523766 -144.76338" fill-rule="nonzero"></path><path fill="#000000" fill-opacity="0.2" d="m221.64168 177.55078l64.47624 8.150009l-97.52379 -144.7634l-64.47622 -8.149998z" fill-rule="nonzero"></path><path fill="#ffffff" fill-opacity="0.2" d="m110.94877 275.913l64.476234 8.149994l110.69292 -98.3622l-64.47624 -8.150009z" fill-rule="nonzero"></path><path stroke="#000000" stroke-width="1.0" stroke-linejoin="round" stroke-linecap="butt" stroke-dasharray="1.0,3.0" d="m110.94877 275.913l64.476234 8.149994l110.69292 -98.3622l-97.52379 -144.7634l-64.47622 -8.149998l-110.69292 98.3622zm0 0l110.69291 -98.36221l64.47624 8.150009m-64.47624 -8.150009l-97.523766 -144.76338" fill-rule="nonzero"></path><path fill="#000000" fill-opacity="0.0" d="m111.464775 272.33618l13.322838 -238.77167" fill-rule="nonzero"></path><path stroke="#ff0000" stroke-width="2.0" stroke-linejoin="round" stroke-linecap="butt" d="m111.464775 272.33618l13.322838 -238.77167" fill-rule="nonzero"></path><path fill="#000000" fill-opacity="0.0" d="m284.28574 185.2544l-173.6063 88.12598" fill-rule="nonzero"></path><path stroke="#ff0000" stroke-width="2.0" stroke-linejoin="round" stroke-linecap="butt" d="m284.28574 185.2544l-173.6063 88.12598" fill-rule="nonzero"></path><path fill="#000000" fill-opacity="0.0" d="m123.89242 33.633373l161.19684 150.61417" fill-rule="nonzero"></path><path stroke="#ff0000" stroke-width="2.0" stroke-linejoin="round" stroke-linecap="butt" d="m123.89242 33.633373l161.19684 150.61417" fill-rule="nonzero"></path><path fill="#000000" fill-opacity="0.0" d="m188.64493 40.95564l-110.71653 98.31496l97.449394 144.78687l110.71654 -98.31497z" fill-rule="nonzero"></path><path fill="#000000" fill-opacity="0.0" d="m77.9284 139.2706l-64.464 -8.173767l97.44939 144.78687l64.464005 8.173767z" fill-rule="nonzero"></path><path fill="#000000" fill-opacity="0.0" d="m188.64493 40.95564l-64.46399 -8.173775l-110.71654 98.31497l64.464 8.173767z" fill-rule="nonzero"></path><path fill="#000000" fill-opacity="0.0" d="m188.64493 40.95564l-64.46399 -8.173775l-110.71654 98.31497l97.44939 144.78687l64.464005 8.173767l110.71654 -98.31497zm0 0l-110.71653 98.31496l-64.464 -8.173767m64.464 8.173767l97.449394 144.78687" fill-rule="nonzero"></path><path fill="#000000" fill-opacity="0.2" d="m77.9284 139.2706l-64.464 -8.173767l97.44939 144.78687l64.464005 8.173767z" fill-rule="nonzero"></path><path fill="#ffffff" fill-opacity="0.2" d="m188.64493 40.95564l-64.46399 -8.173775l-110.71654 98.31497l64.464 8.173767z" fill-rule="nonzero"></path><path stroke="#000000" stroke-width="1.0" stroke-linejoin="round" stroke-linecap="butt" d="m188.64493 40.95564l-64.46399 -8.173775l-110.71654 98.31497l97.44939 144.78687l64.464005 8.173767l110.71654 -98.31497zm0 0l-110.71653 98.31496l-64.464 -8.173767m64.464 8.173767l97.449394 144.78687" fill-rule="nonzero"></path></g></svg>

