1900 0 1 0           
10 Cubit 13.2 17 ACIS 21.0.1 Linux 24 Tue Apr 23 10:02:58 2013 
1 9.9999999999999995e-07 1e-10 
body $1 -1 -1 $-1 $2 $-1 $-1 T -10 -10 -10 10 10 10 #
integer_attrib-name_attrib-gen-attrib $-1 -1 $3 $-1 $0 2 1 1 1 1 1 1 1 1 1 1 1 1 1 0 1 1 1 @8 CUBIT_ID 1 #
lump $4 -1 -1 $-1 $-1 $5 $0 T -10 -10 -10 10 10 10 #
simple-snl-attrib $-1 -1 $-1 $1 $0 1 1 1 1 1 1 1 1 1 1 1 1 0 1 0 1 1 1 @17 NEW_SIMPLE_ATTRIB 1 @9 ENTITY_ID 0 3 1 -2147483648 -1 #
integer_attrib-name_attrib-gen-attrib $-1 -1 $6 $-1 $2 2 1 1 1 1 1 1 1 1 1 1 1 1 1 0 1 1 1 @8 CUBIT_ID 1 #
shell $-1 -1 -1 $-1 $-1 $-1 $7 $-1 $2 T -10 -10 -10 10 10 10 #
simple-snl-attrib $-1 -1 $-1 $4 $2 1 1 1 1 1 1 1 1 1 1 1 1 0 1 0 1 1 1 @17 NEW_SIMPLE_ATTRIB 1 @9 ENTITY_ID 0 3 1 -2147483648 -1 #
face $8 -1 -1 $-1 $9 $10 $5 $-1 $11 forward single T -10 -10 -10 10 10 10 F #
integer_attrib-name_attrib-gen-attrib $-1 -1 $12 $-1 $7 2 1 1 1 1 1 1 1 1 1 1 1 1 1 0 1 1 1 @8 CUBIT_ID 1 #
face $13 -1 -1 $-1 $14 $15 $5 $-1 $16 forward single T -10 -10 -10 10 10 -10 F #
loop $-1 -1 -1 $-1 $17 $18 $7 T -10 -10 -10 10 10 -10 unknown #
cone-surface $-1 -1 -1 $-1 0 0 0 0 0 1 10 0 0 1 I I 0 1 10 forward I I I I #
simple-snl-attrib $-1 -1 $19 $8 $7 1 1 1 1 1 1 1 1 1 1 1 1 0 1 0 1 1 1 @17 NEW_SIMPLE_ATTRIB 1 @9 ENTITY_ID 0 3 1 -2147483648 -1 #
integer_attrib-name_attrib-gen-attrib $-1 -1 $20 $-1 $9 2 1 1 1 1 1 1 1 1 1 1 1 1 1 0 1 1 1 @8 CUBIT_ID 2 #
face $21 -1 -1 $-1 $-1 $22 $5 $-1 $23 forward single T -10 -10 10 10 10 10 F #
loop $-1 -1 -1 $-1 $-1 $24 $9 T -10 -10 -10 10 10 -10 unknown #
plane-surface $-1 -1 -1 $-1 0 0 -10 0 0 -1 -1 0 0 forward_v I I I I #
loop $-1 -1 -1 $-1 $-1 $25 $7 T -10 -10 10 10 10 10 unknown #
coedge $-1 -1 -1 $-1 $18 $18 $24 $26 reversed $10 $-1 #
simple-snl-attrib $-1 -1 $-1 $12 $7 1 1 1 1 1 1 1 1 1 1 1 1 0 1 0 1 1 1 @17 NEW_SIMPLE_ATTRIB 3 @13 MESH_INTERVAL @4 LIMP @4 LIMP 2 1 0 5 1 0 0 1 1 #
simple-snl-attrib $-1 -1 $27 $13 $9 1 1 1 1 1 1 1 1 1 1 1 1 0 1 0 1 1 1 @17 NEW_SIMPLE_ATTRIB 1 @9 ENTITY_ID 0 3 2 -2147483648 -1 #
integer_attrib-name_attrib-gen-attrib $-1 -1 $28 $-1 $14 2 1 1 1 1 1 1 1 1 1 1 1 1 1 0 1 1 1 @8 CUBIT_ID 3 #
loop $-1 -1 -1 $-1 $-1 $29 $14 T -10 -10 10 10 10 10 unknown #
plane-surface $-1 -1 -1 $-1 0 0 10 0 0 1 1 0 0 forward_v I I I I #
coedge $-1 -1 -1 $-1 $24 $24 $18 $26 forward $15 $-1 #
coedge $-1 -1 -1 $-1 $25 $25 $29 $30 reversed $17 $-1 #
edge $31 -1 -1 $-1 $32 0 $32 6.2831853071795862 $24 $33 forward @7 unknown T -10 -10 -10 10 10 -10 #
simple-snl-attrib $-1 -1 $-1 $20 $9 1 1 1 1 1 1 1 1 1 1 1 1 0 1 0 1 1 1 @17 NEW_SIMPLE_ATTRIB 3 @13 MESH_INTERVAL @4 LIMP @4 LIMP 2 1 0 5 1 0 0 1 1 #
simple-snl-attrib $-1 -1 $34 $21 $14 1 1 1 1 1 1 1 1 1 1 1 1 0 1 0 1 1 1 @17 NEW_SIMPLE_ATTRIB 1 @9 ENTITY_ID 0 3 3 -2147483648 -1 #
coedge $-1 -1 -1 $-1 $29 $29 $25 $30 forward $22 $-1 #
edge $35 -1 -1 $-1 $36 0 $36 6.2831853071795862 $29 $37 forward @7 unknown T -10 -10 10 10 10 10 #
integer_attrib-name_attrib-gen-attrib $-1 -1 $38 $-1 $26 2 1 1 1 1 1 1 1 1 1 1 1 1 1 0 1 1 1 @8 CUBIT_ID 1 #
vertex $39 -1 -1 $-1 $26 $40 #
ellipse-curve $-1 -1 -1 $-1 0 0 -10 0 0 -1 10 0 0 1 I I #
simple-snl-attrib $-1 -1 $-1 $28 $14 1 1 1 1 1 1 1 1 1 1 1 1 0 1 0 1 1 1 @17 NEW_SIMPLE_ATTRIB 3 @13 MESH_INTERVAL @4 LIMP @4 LIMP 2 1 0 5 1 0 0 1 1 #
integer_attrib-name_attrib-gen-attrib $-1 -1 $41 $-1 $30 2 1 1 1 1 1 1 1 1 1 1 1 1 1 0 1 1 1 @8 CUBIT_ID 2 #
vertex $42 -1 -1 $-1 $30 $43 #
ellipse-curve $-1 -1 -1 $-1 0 0 10 0 0 1 10 0 0 1 I I #
simple-snl-attrib $-1 -1 $-1 $31 $26 1 1 1 1 1 1 1 1 1 1 1 1 0 1 0 1 1 1 @17 NEW_SIMPLE_ATTRIB 1 @9 ENTITY_ID 0 3 1 -2147483648 -1 #
integer_attrib-name_attrib-gen-attrib $-1 -1 $44 $-1 $32 2 1 1 1 1 1 1 1 1 1 1 1 1 1 0 1 1 1 @8 CUBIT_ID 1 #
point $-1 -1 -1 $-1 10 0 -10 #
simple-snl-attrib $-1 -1 $-1 $35 $30 1 1 1 1 1 1 1 1 1 1 1 1 0 1 0 1 1 1 @17 NEW_SIMPLE_ATTRIB 1 @9 ENTITY_ID 0 3 2 -2147483648 -1 #
integer_attrib-name_attrib-gen-attrib $-1 -1 $45 $-1 $36 2 1 1 1 1 1 1 1 1 1 1 1 1 1 0 1 1 1 @8 CUBIT_ID 2 #
point $-1 -1 -1 $-1 10 0 10 #
simple-snl-attrib $-1 -1 $-1 $39 $32 1 1 1 1 1 1 1 1 1 1 1 1 0 1 0 1 1 1 @17 NEW_SIMPLE_ATTRIB 1 @9 ENTITY_ID 0 3 1 -2147483648 -1 #
simple-snl-attrib $-1 -1 $-1 $42 $36 1 1 1 1 1 1 1 1 1 1 1 1 0 1 0 1 1 1 @17 NEW_SIMPLE_ATTRIB 1 @9 ENTITY_ID 0 3 2 -2147483648 -1 #
End-of-ACIS-data 